<?xml version="1.0" standalone="no"?><!-- Generator: Gravit.io --><svg xmlns="http://www.w3.org/2000/svg" xmlns:xlink="http://www.w3.org/1999/xlink" style="isolation:isolate" viewBox="0 0 600 600" width="600" height="600"><defs><clipPath id="_clipPath_Uo4VPlxJy26nL6Ccvz9XDMsunEhGHaBS"><rect width="600" height="600"/></clipPath></defs><g clip-path="url(#_clipPath_Uo4VPlxJy26nL6Ccvz9XDMsunEhGHaBS)"><path d="M 144 0 L 456 0 C 535.476 0 600 64.524 600 144 L 600 456 C 600 535.476 535.476 600 456 600 L 144 600 C 64.524 600 0 535.476 0 456 L 0 144 C 0 64.524 64.524 0 144 0 Z" style="stroke:none;fill:#4E7AB5;stroke-miterlimit:10;"/><g id="bike"><g id="Group"><g id="Hweels"><path d=" M 304.141 423.254 C 304.141 353.105 361.093 296.153 431.242 296.153 C 501.392 296.153 558.344 353.105 558.344 423.254 C 558.344 493.403 501.392 550.356 431.242 550.356 C 361.093 550.356 304.141 493.403 304.141 423.254 Z " fill="rgb(139,183,240)"/><path d=" M 95.248 448.014 C 95.248 418.333 119.346 394.235 149.027 394.235 C 178.709 394.235 202.806 418.333 202.806 448.014 C 202.806 477.695 178.709 501.793 149.027 501.793 C 119.346 501.793 95.248 477.695 95.248 448.014 Z " fill="rgb(139,183,240)"/></g><path d=" M 426.341 556 C 500.24 556 560.366 495.884 560.366 421.975 C 560.366 348.067 500.24 287.941 426.341 287.941 C 352.442 287.941 292.316 348.067 292.316 421.975 C 292.316 495.884 352.442 556 426.341 556 Z  M 426.341 306.86 C 489.806 306.86 541.447 358.491 541.447 421.966 C 541.447 485.431 489.816 537.071 426.341 537.071 C 362.867 537.071 311.236 485.44 311.236 421.975 C 311.236 358.501 362.867 306.86 426.341 306.86 Z " fill="rgb(255,255,255)"/><path d=" M 405.246 298.725 L 423.967 296.029 L 404.726 162.241 C 520.115 140.077 511.932 57.314 511.828 56.463 L 493.041 58.639 L 502.435 57.551 L 493.032 58.582 C 493.325 61.429 499.058 128.602 392.617 145.138 L 383.375 146.576 L 405.246 298.725 Z " fill="rgb(255,255,255)"/><rect x="108.049" y="175.464" width="18.918" height="226.216" transform="matrix(0.982,-0.187,0.187,0.982,-51.76,26.98)" fill="rgb(255,255,255)"/><rect x="32.506" y="163.291" width="150.56" height="18.919" transform="matrix(1,0,0,1,0,0)" fill="rgb(255,255,255)"/><path d=" M 225.541 400.861 C 241.565 267.243 405.407 246.952 407.053 246.763 L 404.896 227.967 C 403.099 228.175 224.538 250.32 206.744 398.61 L 225.541 400.861 Z " fill="rgb(255,255,255)"/><path d=" M 150.554 512.977 C 186.264 512.977 215.334 483.927 215.334 448.207 C 215.334 412.487 186.273 383.427 150.554 383.427 C 114.834 383.427 85.783 412.487 85.783 448.207 C 85.783 483.927 114.834 512.977 150.554 512.977 Z  M 150.554 402.346 C 175.839 402.346 196.414 422.921 196.414 448.207 C 196.414 473.493 175.839 494.058 150.554 494.058 C 125.268 494.058 104.703 473.493 104.703 448.207 C 104.703 422.921 125.268 402.346 150.554 402.346 Z " fill="rgb(255,255,255)"/><path d=" M 171.469 509.468 L 442.621 435.73 L 442.621 406.556 L 155.728 383.455 L 154.205 402.328 L 415.898 423.385 L 166.493 491.211 L 171.469 509.468 Z " fill="rgb(255,255,255)"/></g></g></g></svg>