<?xml version="1.0" standalone="no"?><!-- Generator: Gravit.io --><svg xmlns="http://www.w3.org/2000/svg" xmlns:xlink="http://www.w3.org/1999/xlink" style="isolation:isolate" viewBox="0 0 600 600" width="600" height="600"><defs><clipPath id="_clipPath_Am1VWiwIjgcHmlBNAwqjQxJNYc0P8gMn"><rect width="600" height="600"/></clipPath></defs><g clip-path="url(#_clipPath_Am1VWiwIjgcHmlBNAwqjQxJNYc0P8gMn)"><path d="M 147.16 7 L 450.84 7 C 528.196 7 591 69.804 591 147.16 L 591 450.84 C 591 528.196 528.196 591 450.84 591 L 147.16 591 C 69.804 591 7 528.196 7 450.84 L 7 147.16 C 7 69.804 69.804 7 147.16 7 Z" style="stroke:none;fill:#4E7AB5;stroke-miterlimit:10;"/><g id="bike"><g id="Group"><g id="Hweels"><path d=" M 299.982 413.764 C 299.982 350.225 351.061 298.64 413.975 298.64 C 476.889 298.64 527.967 350.225 527.967 413.764 C 527.967 477.302 476.889 528.888 413.975 528.888 C 351.061 528.888 299.982 477.302 299.982 413.764 Z " fill="rgb(188,212,244)"/></g><path d=" M 168.851 392.859 C 146.466 392.859 128.259 411.074 128.259 433.459 C 128.259 455.844 146.466 474.051 168.851 474.051 C 191.236 474.051 209.451 455.844 209.451 433.459 C 209.451 411.074 191.236 392.859 168.851 392.859 L 168.851 392.859 Z  M 296.826 386.07 L 236.845 381.241 C 254.947 287.646 358.135 261.926 387.902 256.414 L 393.194 293.23 C 345.071 301.353 306.696 338.551 296.826 386.07 L 296.826 386.07 Z  M 319.901 451.651 L 427.417 422.413 L 427.417 396.585 L 313.675 387.427 C 324.058 342.177 364.649 308.326 413.004 308.326 C 469.19 308.326 514.907 354.034 514.907 410.228 C 514.907 466.413 469.198 512.13 413.004 512.13 C 371.551 512.13 335.803 487.256 319.901 451.651 L 319.901 451.651 Z  M 314.349 435.799 L 403.759 411.484 L 311.288 404.043 C 311.165 406.092 311.102 408.157 311.102 410.236 C 311.102 419.061 312.23 427.628 314.349 435.799 L 314.349 435.799 Z  M 173.419 376.29 C 171.912 376.17 170.388 376.11 168.851 376.11 C 167.251 376.11 165.666 376.175 164.099 376.305 L 130.244 197.973 L 197.635 197.973 L 197.635 181.224 L 64.344 181.224 L 64.344 197.973 L 113.197 197.973 L 147.776 380.121 L 147.776 380.121 C 126.553 388.538 111.51 409.274 111.51 433.459 C 111.51 465.081 137.228 490.8 168.851 490.8 C 175.524 490.8 181.935 489.654 187.897 487.549 L 303.571 456.092 C 321.54 498.816 363.827 528.888 413.004 528.888 C 478.427 528.888 531.656 475.667 531.656 410.236 C 531.656 344.805 478.427 291.576 413.004 291.576 C 411.959 291.576 410.917 291.59 409.878 291.617 L 393.868 180.295 C 496.022 160.673 488.778 87.403 488.686 86.65 L 472.054 88.576 L 480.37 87.613 L 472.045 88.526 C 472.305 91.046 477.38 150.514 383.149 165.153 L 374.967 166.426 L 385.521 239.851 C 353.226 245.835 239.104 274.31 220.044 379.888 L 173.432 376.135 L 173.419 376.29 Z  M 212.311 396.079 C 220.963 406.125 226.2 419.192 226.2 433.459 C 226.2 443.767 223.466 453.448 218.684 461.815 L 298.183 440.195 C 295.684 430.622 294.353 420.582 294.353 410.236 C 294.353 407.705 294.433 405.192 294.589 402.7 L 294.589 402.7 L 212.311 396.079 Z " fill="rgb(255,255,255)" vector-effect="non-scaling-stroke" stroke-width="7.082" stroke="rgb(255,255,255)" stroke-linejoin="miter" stroke-linecap="butt" stroke-miterlimit="4"/></g></g><path d="M 150 12 L 449 12 C 525.164 12 587 73.836 587 150 L 587 449 C 587 525.164 525.164 587 449 587 L 150 587 C 73.836 587 12 525.164 12 449 L 12 150 C 12 73.836 73.836 12 150 12 Z" style="fill:none;stroke:#FFFFFF;stroke-width:22;stroke-linecap:square;stroke-miterlimit:3;"/></g></svg>