<?xml version="1.0" standalone="no"?><!-- Generator: Gravit.io --><svg xmlns="http://www.w3.org/2000/svg" xmlns:xlink="http://www.w3.org/1999/xlink" style="isolation:isolate" viewBox="0 0 600 600" width="600" height="600"><defs><clipPath id="_clipPath_GASuqjf8fRd88IW8MKZEsIDaIN7aEfHj"><rect width="600" height="600"/></clipPath></defs><g clip-path="url(#_clipPath_GASuqjf8fRd88IW8MKZEsIDaIN7aEfHj)"><rect width="600" height="600" style="fill:rgb(185,185,185)"/><radialGradient id="_rgradient_5" fx="50%" fy="50%" cx="50%" cy="50%" r="50%"><stop offset="0%" stop-opacity="1" style="stop-color:rgb(255,255,255)"/><stop offset="100%" stop-opacity="1" style="stop-color:rgb(242,242,242)"/></radialGradient><rect x="0" y="0" width="600" height="600" transform="matrix(1,0,0,1,0,0)" fill="url(#_rgradient_5)"/><g style="isolation: isolate;"><rect x="0" y="0" width="600" height="600" transform="matrix(1,0,0,1,0,0)" fill="none" vector-effect="non-scaling-stroke" stroke-width="18" stroke="rgb(255,255,255)" stroke-linejoin="miter" stroke-linecap="square" stroke-miterlimit="3"/><rect x="0" y="0" width="600" height="600" transform="matrix(1,0,0,1,0,0)" fill="none" vector-effect="non-scaling-stroke" stroke-width="8" stroke="rgb(36,104,136)" stroke-linejoin="miter" stroke-linecap="square" stroke-miterlimit="3"/><rect x="0" y="0" width="600" height="600" transform="matrix(1,0,0,1,0,0)" fill="none" vector-effect="non-scaling-stroke" stroke-width="2" stroke="rgb(194,232,255)" stroke-linejoin="miter" stroke-linecap="square" stroke-miterlimit="3"/></g><g id="bike"><g id="Group"><linearGradient id="_lgradient_13" x1="0%" y1="50%" x2="100%" y2="50.00000000000002%"><stop offset="0.8695652173912993%" stop-opacity="1" style="stop-color:rgb(160,211,242)"/><stop offset="100%" stop-opacity="1" style="stop-color:rgb(194,232,255)"/></linearGradient><path d=" M 303.022 413.691 C 303.022 346.621 357.474 292.169 424.544 292.169 C 491.614 292.169 546.067 346.621 546.067 413.691 C 546.067 480.761 491.614 535.213 424.544 535.213 C 357.474 535.213 303.022 480.761 303.022 413.691 Z " fill="url(#_lgradient_13)"/><linearGradient id="_lgradient_14" x1="0%" y1="50%" x2="100%" y2="50.00000000000002%"><stop offset="0.8695652173912993%" stop-opacity="1" style="stop-color:rgb(160,211,242)"/><stop offset="100%" stop-opacity="1" style="stop-color:rgb(194,232,255)"/></linearGradient><path d=" M 103.299 437.364 C 103.299 408.986 126.338 385.946 154.717 385.946 C 183.095 385.946 206.135 408.986 206.135 437.364 C 206.135 465.743 183.095 488.782 154.717 488.782 C 126.338 488.782 103.299 465.743 103.299 437.364 Z " fill="url(#_lgradient_14)"/><path d=" M 419.858 540.61 C 490.513 540.61 548 483.133 548 412.468 C 548 341.804 490.513 284.318 419.858 284.318 C 349.203 284.318 291.717 341.804 291.717 412.468 C 291.717 483.133 349.203 540.61 419.858 540.61 Z  M 419.858 302.406 C 480.537 302.406 529.911 351.771 529.911 412.459 C 529.911 473.138 480.547 522.512 419.858 522.512 C 359.17 522.512 309.805 473.148 309.805 412.468 C 309.805 351.78 359.17 302.406 419.858 302.406 Z " fill="rgb(36,104,136)"/><path d=" M 399.689 294.628 L 417.588 292.051 L 399.192 164.135 C 509.516 142.944 501.692 63.814 501.593 63 L 483.631 65.08 L 492.612 64.04 L 483.622 65.026 C 483.902 67.748 489.383 131.973 387.615 147.783 L 378.778 149.157 L 399.689 294.628 Z " fill="rgb(36,104,136)"/><rect x="115.538" y="176.778" width="18.088" height="216.286" transform="matrix(0.982,-0.187,0.187,0.982,-50.955,28.235)" fill="rgb(36,104,136)"/><rect x="43.311" y="165.139" width="143.951" height="18.089" transform="matrix(1,0,0,1,0,0)" fill="rgb(36,104,136)"/><path d=" M 227.872 392.281 C 243.193 264.528 399.843 245.128 401.417 244.947 L 399.355 226.976 C 397.636 227.175 226.913 248.348 209.901 390.129 L 227.872 392.281 Z " fill="rgb(36,104,136)"/><path d=" M 156.177 499.476 C 190.319 499.476 218.113 471.7 218.113 437.549 C 218.113 403.397 190.328 375.612 156.177 375.612 C 122.025 375.612 94.249 403.397 94.249 437.549 C 94.249 471.7 122.025 499.476 156.177 499.476 Z  M 156.177 393.701 C 180.352 393.701 200.024 413.373 200.024 437.549 C 200.024 461.724 180.352 481.387 156.177 481.387 C 132.001 481.387 112.338 461.724 112.338 437.549 C 112.338 413.373 132.001 393.701 156.177 393.701 Z " fill="rgb(36,104,136)"/><path d=" M 176.174 496.12 L 435.424 425.619 L 435.424 397.726 L 161.124 375.639 L 159.668 393.683 L 409.873 413.816 L 171.416 478.665 L 176.174 496.12 Z " fill="rgb(36,104,136)"/></g></g></g></svg>