<?xml version="1.0" standalone="no"?><!-- Generator: Gravit.io --><svg xmlns="http://www.w3.org/2000/svg" xmlns:xlink="http://www.w3.org/1999/xlink" style="isolation:isolate" viewBox="0 0 600 600" width="600" height="600"><defs><clipPath id="_clipPath_fkZLGjBTv4MEFFiIc7BFHoCHjLngSHgU"><rect width="600" height="600"/></clipPath></defs><g clip-path="url(#_clipPath_fkZLGjBTv4MEFFiIc7BFHoCHjLngSHgU)"><rect width="600" height="600" style="fill:rgb(185,185,185)"/><rect x="0" y="0" width="600" height="600" transform="matrix(1,0,0,1,0,0)" fill="rgb(255,255,255)"/><g style="isolation: isolate;"><rect x="0" y="0" width="600" height="600" transform="matrix(1,0,0,1,0,0)" fill="none" vector-effect="non-scaling-stroke" stroke-width="29" stroke="rgb(255,255,255)" stroke-linejoin="miter" stroke-linecap="square" stroke-miterlimit="3"/><rect x="0" y="0" width="600" height="600" transform="matrix(1,0,0,1,0,0)" fill="none" vector-effect="non-scaling-stroke" stroke-width="15" stroke="rgb(36,104,136)" stroke-linejoin="miter" stroke-linecap="square" stroke-miterlimit="3"/></g><g id="bike"><g id="Group"><linearGradient id="_lgradient_7" x1="0%" y1="50%" x2="100%" y2="50.00000000000002%"><stop offset="0.8695652173912993%" stop-opacity="1" style="stop-color:rgb(160,211,242)"/><stop offset="100%" stop-opacity="1" style="stop-color:rgb(194,232,255)"/></linearGradient><path d=" M 306.022 411.691 C 306.022 344.621 360.474 290.169 427.544 290.169 C 494.614 290.169 549.067 344.621 549.067 411.691 C 549.067 478.761 494.614 533.213 427.544 533.213 C 360.474 533.213 306.022 478.761 306.022 411.691 Z " fill="url(#_lgradient_7)"/><linearGradient id="_lgradient_8" x1="0%" y1="50%" x2="100%" y2="50.00000000000002%"><stop offset="0.8695652173912993%" stop-opacity="1" style="stop-color:rgb(160,211,242)"/><stop offset="100%" stop-opacity="1" style="stop-color:rgb(194,232,255)"/></linearGradient><path d=" M 106.299 435.364 C 106.299 406.986 129.338 383.946 157.717 383.946 C 186.095 383.946 209.135 406.986 209.135 435.364 C 209.135 463.743 186.095 486.782 157.717 486.782 C 129.338 486.782 106.299 463.743 106.299 435.364 Z " fill="url(#_lgradient_8)"/><path d=" M 422.858 538.61 C 493.513 538.61 551 481.133 551 410.468 C 551 339.804 493.513 282.318 422.858 282.318 C 352.203 282.318 294.717 339.804 294.717 410.468 C 294.717 481.133 352.203 538.61 422.858 538.61 Z  M 422.858 300.406 C 483.537 300.406 532.911 349.771 532.911 410.459 C 532.911 471.138 483.547 520.512 422.858 520.512 C 362.17 520.512 312.805 471.148 312.805 410.468 C 312.805 349.78 362.17 300.406 422.858 300.406 Z " fill="rgb(36,104,136)"/><path d=" M 402.689 292.628 L 420.588 290.051 L 402.192 162.135 C 512.516 140.944 504.692 61.814 504.593 61 L 486.631 63.08 L 495.612 62.04 L 486.622 63.026 C 486.902 65.748 492.383 129.973 390.615 145.783 L 381.778 147.157 L 402.689 292.628 Z " fill="rgb(36,104,136)"/><rect x="118.538" y="174.778" width="18.088" height="216.286" transform="matrix(0.982,-0.187,0.187,0.982,-50.529,28.76)" fill="rgb(36,104,136)"/><rect x="46.311" y="163.139" width="143.951" height="18.089" transform="matrix(1,0,0,1,0,0)" fill="rgb(36,104,136)"/><path d=" M 230.872 390.281 C 246.193 262.528 402.843 243.128 404.417 242.947 L 402.355 224.976 C 400.636 225.175 229.913 246.348 212.901 388.129 L 230.872 390.281 Z " fill="rgb(36,104,136)"/><path d=" M 159.177 497.476 C 193.319 497.476 221.113 469.7 221.113 435.549 C 221.113 401.397 193.328 373.612 159.177 373.612 C 125.025 373.612 97.249 401.397 97.249 435.549 C 97.249 469.7 125.025 497.476 159.177 497.476 Z  M 159.177 391.701 C 183.352 391.701 203.024 411.373 203.024 435.549 C 203.024 459.724 183.352 479.387 159.177 479.387 C 135.001 479.387 115.338 459.724 115.338 435.549 C 115.338 411.373 135.001 391.701 159.177 391.701 Z " fill="rgb(36,104,136)"/><path d=" M 179.174 494.12 L 438.424 423.619 L 438.424 395.726 L 164.124 373.639 L 162.668 391.683 L 412.873 411.816 L 174.416 476.665 L 179.174 494.12 Z " fill="rgb(36,104,136)"/></g></g></g></svg>