<?xml version="1.0" standalone="no"?><!-- Generator: Gravit.io --><svg xmlns="http://www.w3.org/2000/svg" xmlns:xlink="http://www.w3.org/1999/xlink" style="isolation:isolate" viewBox="0 0 120 120" width="120" height="120"><defs><clipPath id="_clipPath_OVYz2Q8ioeSehC7FxwFNDuFI1MbJc4Sd"><rect width="120" height="120"/></clipPath></defs><g clip-path="url(#_clipPath_OVYz2Q8ioeSehC7FxwFNDuFI1MbJc4Sd)"><path d=" M 30.61 37.669 C 30.61 35.583 32.41 33.89 34.626 33.89 C 36.842 33.89 38.642 35.583 38.642 37.669 C 38.642 39.755 36.842 41.449 34.626 41.449 C 32.41 41.449 30.61 39.755 30.61 37.669 Z " fill="rgb(194,232,255)"/><path d=" M 36.268 105.008 C 36.268 102.574 37.961 100.598 40.047 100.598 C 42.133 100.598 43.827 102.574 43.827 105.008 C 43.827 107.442 42.133 109.417 40.047 109.417 C 37.961 109.417 36.268 107.442 36.268 105.008 Z " fill="rgb(194,232,255)"/><path d=" M 49.496 84.22 C 49.496 81.787 51.19 79.811 53.276 79.811 C 55.362 79.811 57.055 81.787 57.055 84.22 C 57.055 86.654 55.362 88.63 53.276 88.63 C 51.19 88.63 49.496 86.654 49.496 84.22 Z " fill="rgb(194,232,255)"/><path d=" M 79.102 78.551 C 79.102 76.118 80.937 74.142 83.197 74.142 C 85.457 74.142 87.291 76.118 87.291 78.551 C 87.291 80.985 85.457 82.961 83.197 82.961 C 80.937 82.961 79.102 80.985 79.102 78.551 Z " fill="rgb(194,232,255)"/><path d=" M 65.244 100.283 C 65.244 97.676 67.361 95.559 69.969 95.559 C 72.576 95.559 74.693 97.676 74.693 100.283 C 74.693 102.891 72.576 105.008 69.969 105.008 C 67.361 105.008 65.244 102.891 65.244 100.283 Z " fill="rgb(194,232,255)"/><g id="noun_1076145_cc"><g id="Group"><path d=" M 60.579 22.866 C 58.374 19.087 52.579 18.142 45.083 19.717 C 42.752 12.535 39.036 8 34.626 8 C 30.217 8 26.5 12.472 24.169 19.717 C 16.736 18.079 10.878 19.087 8.673 22.866 C 7.728 24.441 7.539 26.52 8.106 28.724 C 8.862 31.496 10.815 34.583 13.65 37.669 C 10.752 40.756 8.799 43.843 8.106 46.614 C 7.539 48.819 7.728 50.898 8.673 52.472 C 10.185 55.055 13.461 56.315 17.807 56.315 C 19.76 56.315 21.902 56.063 24.169 55.559 C 26.5 62.803 30.217 67.339 34.626 67.339 C 39.036 67.339 42.752 62.866 45.083 55.622 C 47.35 56.126 49.555 56.378 51.445 56.378 C 55.791 56.378 59.004 55.118 60.579 52.535 C 61.524 50.898 61.713 48.882 61.146 46.677 C 60.39 43.906 58.437 40.819 55.602 37.732 C 58.5 34.646 60.453 31.559 61.146 28.787 C 61.713 26.52 61.524 24.441 60.579 22.866 Z  M 28.516 18.772 C 30.28 14.425 32.547 11.843 34.626 11.843 C 36.705 11.843 38.973 14.425 40.736 18.772 C 40.988 19.402 41.24 20.031 41.429 20.724 C 39.225 21.417 36.957 22.236 34.626 23.307 C 32.295 22.236 30.028 21.417 27.823 20.724 C 28.075 20.031 28.264 19.339 28.516 18.772 Z  M 43.823 37.669 C 43.823 39.433 43.76 41.134 43.634 42.772 C 42.248 43.717 40.799 44.598 39.225 45.48 C 37.713 46.362 36.138 47.181 34.626 47.874 C 33.114 47.118 31.539 46.362 30.028 45.48 C 28.453 44.598 27.004 43.654 25.618 42.772 C 25.492 41.134 25.429 39.37 25.429 37.669 C 25.429 35.906 25.492 34.205 25.618 32.567 C 27.004 31.622 28.453 30.74 30.028 29.858 C 31.539 28.976 33.114 28.157 34.626 27.465 C 36.138 28.22 37.713 28.976 39.225 29.858 C 40.799 30.74 42.248 31.685 43.634 32.567 C 43.76 34.205 43.823 35.906 43.823 37.669 Z  M 47.539 35.402 C 48.484 36.157 49.366 36.913 50.185 37.669 C 49.366 38.425 48.484 39.181 47.539 39.937 C 47.539 39.181 47.602 38.425 47.602 37.669 C 47.602 36.913 47.602 36.157 47.539 35.402 Z  M 43.067 47.622 C 42.878 48.756 42.689 49.89 42.437 50.961 C 41.366 50.646 40.295 50.268 39.162 49.827 C 39.791 49.512 40.484 49.134 41.114 48.756 C 41.744 48.441 42.437 48.063 43.067 47.622 Z  M 30.091 49.89 C 29.02 50.331 27.886 50.709 26.815 51.024 C 26.563 49.953 26.374 48.819 26.185 47.685 C 26.815 48.063 27.508 48.441 28.138 48.819 C 28.768 49.197 29.461 49.512 30.091 49.89 Z  M 21.713 39.937 C 20.768 39.181 19.886 38.425 19.067 37.669 C 19.886 36.913 20.768 36.157 21.713 35.402 C 21.713 36.157 21.65 36.913 21.65 37.669 C 21.65 38.425 21.65 39.181 21.713 39.937 Z  M 26.185 27.717 C 26.374 26.583 26.563 25.449 26.815 24.378 C 27.886 24.693 28.957 25.071 30.091 25.512 C 29.461 25.827 28.768 26.205 28.138 26.583 C 27.508 26.898 26.815 27.276 26.185 27.717 Z  M 41.114 26.52 C 40.484 26.142 39.791 25.827 39.162 25.449 C 40.232 25.008 41.366 24.63 42.437 24.315 C 42.689 25.386 42.878 26.52 43.067 27.654 C 42.437 27.276 41.744 26.898 41.114 26.52 Z  M 11.949 24.756 C 12.705 23.433 14.784 22.74 17.681 22.74 C 18.689 22.74 19.886 22.803 21.083 22.992 C 21.776 23.118 22.469 23.244 23.162 23.37 C 22.658 25.575 22.28 27.906 22.028 30.425 C 19.949 31.874 18.059 33.449 16.421 34.961 C 13.902 32.189 12.327 29.669 11.823 27.654 C 11.445 26.52 11.508 25.512 11.949 24.756 Z  M 21.083 52.346 C 16.421 53.039 12.957 52.409 11.949 50.583 C 11.508 49.827 11.445 48.819 11.76 47.622 C 12.264 45.669 13.839 43.087 16.358 40.315 C 18.059 41.89 19.949 43.402 21.965 44.85 C 22.217 47.37 22.595 49.764 23.099 51.906 C 22.469 52.094 21.776 52.22 21.083 52.346 Z  M 40.736 56.567 C 38.973 60.913 36.705 63.496 34.626 63.496 C 32.547 63.496 30.28 60.913 28.516 56.567 C 28.264 55.937 28.012 55.307 27.823 54.614 C 30.028 53.921 32.295 53.102 34.626 52.031 C 36.957 53.102 39.225 53.921 41.429 54.614 C 41.177 55.307 40.988 56 40.736 56.567 Z  M 57.303 50.583 C 56.295 52.346 52.831 52.976 48.169 52.346 C 47.476 52.22 46.784 52.094 46.091 51.969 C 46.595 49.764 46.973 47.433 47.225 44.913 C 49.303 43.465 51.193 41.89 52.831 40.378 C 55.35 43.15 56.925 45.669 57.429 47.685 C 57.807 48.819 57.744 49.827 57.303 50.583 Z  M 57.492 27.717 C 56.988 29.669 55.413 32.252 52.894 35.024 C 51.193 33.449 49.303 31.937 47.287 30.488 C 47.036 27.969 46.658 25.575 46.154 23.433 C 46.847 23.307 47.539 23.181 48.232 23.055 C 52.894 22.362 56.358 22.992 57.366 24.819 C 57.744 25.512 57.807 26.52 57.492 27.717 Z " fill="rgb(84,110,122)" vector-effect="non-scaling-stroke" stroke-width="0.63" stroke="rgb(84,110,122)" stroke-linejoin="miter" stroke-linecap="butt" stroke-miterlimit="4"/><path d=" M 34.626 31.874 C 31.413 31.874 28.831 34.457 28.831 37.669 C 28.831 40.882 31.413 43.465 34.626 43.465 C 37.839 43.465 40.421 40.882 40.421 37.669 C 40.421 34.457 37.839 31.874 34.626 31.874 Z  M 34.626 39.685 C 33.492 39.685 32.61 38.803 32.61 37.669 C 32.61 36.535 33.492 35.654 34.626 35.654 C 35.76 35.654 36.642 36.535 36.642 37.669 C 36.642 38.803 35.76 39.685 34.626 39.685 Z " fill="rgb(84,110,122)" vector-effect="non-scaling-stroke" stroke-width="0.63" stroke="rgb(84,110,122)" stroke-linejoin="miter" stroke-linecap="butt" stroke-miterlimit="4"/></g></g><g id="noun_1076109_cc"><g id="Group"><path d=" M 83.102 71.748 C 79.197 71.748 75.984 74.961 75.984 78.866 C 75.984 81.134 77.055 83.15 78.693 84.472 L 72.205 92.787 C 71.638 92.661 71.008 92.535 70.441 92.535 C 69.559 92.535 68.74 92.724 67.984 92.976 L 59.732 87.622 C 60.362 86.551 60.74 85.354 60.74 84.031 C 60.74 80.126 57.528 76.913 53.622 76.913 C 49.717 76.913 46.504 80.126 46.504 84.031 C 46.504 86.11 47.386 88 48.835 89.323 L 42.41 98.268 C 41.591 97.953 40.709 97.764 39.764 97.764 C 35.858 97.764 32.646 100.976 32.646 104.882 C 32.646 108.787 35.858 112 39.764 112 C 43.669 112 46.882 108.787 46.882 104.882 C 46.882 103.307 46.315 101.795 45.433 100.598 L 52.362 91.024 C 52.803 91.087 53.244 91.15 53.685 91.15 C 54.882 91.15 55.953 90.835 56.961 90.331 L 64.772 95.433 C 63.89 96.63 63.323 98.079 63.323 99.654 C 63.323 103.559 66.536 106.772 70.441 106.772 C 74.347 106.772 77.559 103.559 77.559 99.654 C 77.559 97.764 76.803 96 75.543 94.74 L 82.473 85.921 C 82.725 85.921 82.913 85.984 83.165 85.984 C 87.071 85.984 90.284 82.772 90.284 78.866 C 90.284 74.961 87.071 71.748 83.102 71.748 Z  M 39.764 108.157 C 37.937 108.157 36.425 106.646 36.425 104.819 C 36.425 102.992 37.937 101.48 39.764 101.48 C 40.394 101.48 41.024 101.669 41.528 101.984 C 41.591 102.11 41.717 102.173 41.843 102.299 C 41.906 102.362 42.032 102.425 42.095 102.488 C 42.725 103.118 43.102 103.937 43.102 104.819 C 43.039 106.709 41.591 108.157 39.764 108.157 Z  M 50.284 84.031 C 50.284 82.205 51.795 80.693 53.622 80.693 C 55.449 80.693 56.961 82.205 56.961 84.031 C 56.961 85.858 55.449 87.37 53.622 87.37 C 51.795 87.37 50.284 85.858 50.284 84.031 Z  M 70.378 102.992 C 68.551 102.992 67.039 101.48 67.039 99.654 C 67.039 97.827 68.551 96.315 70.378 96.315 C 72.205 96.315 73.717 97.827 73.717 99.654 C 73.717 101.48 72.205 102.992 70.378 102.992 Z  M 83.102 82.142 C 81.276 82.142 79.764 80.63 79.764 78.803 C 79.764 76.976 81.276 75.465 83.102 75.465 C 84.929 75.465 86.441 76.976 86.441 78.803 C 86.441 80.63 84.929 82.142 83.102 82.142 Z " fill="rgb(84,110,122)"/></g></g></g></svg>