<?xml version="1.0" standalone="no"?><!-- Generator: Gravit.io --><svg xmlns="http://www.w3.org/2000/svg" xmlns:xlink="http://www.w3.org/1999/xlink" style="isolation:isolate" viewBox="0 0 480 320" width="480" height="320"><defs><clipPath id="_clipPath_4xlpOln72I6UbMKOOCe6rntE9iTmhmXt"><rect width="480" height="320"/></clipPath></defs><g clip-path="url(#_clipPath_4xlpOln72I6UbMKOOCe6rntE9iTmhmXt)"><g style="isolation:isolate" id="chart"><g id="Group"><g id="Group"><g id="Navigation Toolbar Top "><g id="Group"><rect x="270.746" y="198.182" width="122.251" height="90.815" transform="matrix(1,0,0,1,0,0)" fill="rgb(194,232,255)"/><g id="Group"><path d=" M 391.251 199.929 L 391.251 287.251 L 272.493 287.251 L 272.493 199.929 L 391.251 199.929 Z  M 394.744 196.436 L 269 196.436 L 269 290.744 L 394.744 290.744 L 394.744 196.436 L 394.744 196.436 Z " fill-rule="evenodd" fill="rgb(116,150,196)"/></g></g><g id="Group"><rect x="270.746" y="166.746" width="122.251" height="31.436" transform="matrix(1,0,0,1,0,0)" fill="rgb(139,183,240)"/><path d=" M 391.251 168.493 L 391.251 196.436 L 272.493 196.436 L 272.493 168.493 L 391.251 168.493 Z  M 394.744 165 L 269 165 L 269 199.929 L 394.744 199.929 L 394.744 165 L 394.744 165 Z " fill-rule="evenodd" fill="rgb(78,122,181)"/></g><rect x="321.393" y="175.479" width="62.872" height="13.972" transform="matrix(1,0,0,1,0,0)" fill="rgb(255,255,255)"/><path d=" M 279.479 182.464 C 279.479 178.609 282.609 175.479 286.464 175.479 C 290.32 175.479 293.45 178.609 293.45 182.464 C 293.45 186.32 290.32 189.45 286.464 189.45 C 282.609 189.45 279.479 186.32 279.479 182.464 Z " fill="rgb(194,232,255)"/><path d=" M 300.436 182.464 C 300.436 178.609 303.566 175.479 307.422 175.479 C 311.277 175.479 314.408 178.609 314.408 182.464 C 314.408 186.32 311.277 189.45 307.422 189.45 C 303.566 189.45 300.436 186.32 300.436 182.464 Z " fill="rgb(194,232,255)"/></g></g><g id="Bullish"><g id="Group"><rect x="363.014" y="230.784" width="9.582" height="46.743" transform="matrix(1,0,0,1,0,0)" fill="rgb(186,224,189)"/><g id="Group"><path d=" M 371.399 231.719 L 371.399 276.592 L 364.212 276.592 L 364.212 231.719 L 371.399 231.719 Z  M 373.794 229.849 L 361.817 229.849 L 361.817 278.462 L 373.794 278.462 L 373.794 229.849 L 373.794 229.849 Z " fill-rule="evenodd" fill="rgb(94,156,118)"/></g></g><g id="Group"><rect x="334.268" y="240.133" width="9.582" height="37.395" transform="matrix(1,0,0,1,0,0)" fill="rgb(186,224,189)"/><g id="Group"><path d=" M 342.652 241.067 L 342.652 276.592 L 335.465 276.592 L 335.465 241.067 L 342.652 241.067 Z  M 345.048 239.198 L 333.07 239.198 L 333.07 278.462 L 345.048 278.462 L 345.048 239.198 L 345.048 239.198 Z " fill-rule="evenodd" fill="rgb(94,156,118)"/></g></g><g id="Group"><rect x="319.894" y="253.221" width="9.582" height="24.307" transform="matrix(1,0,0,1,0,0)" fill="rgb(186,224,189)"/><g id="Group"><path d=" M 328.279 254.156 L 328.279 276.592 L 321.092 276.592 L 321.092 254.156 L 328.279 254.156 Z  M 330.674 252.286 L 318.696 252.286 L 318.696 278.462 L 330.674 278.462 L 330.674 252.286 L 330.674 252.286 Z " fill-rule="evenodd" fill="rgb(94,156,118)"/></g></g><g id="Group"><rect x="305.521" y="247.612" width="9.582" height="29.916" transform="matrix(1,0,0,1,0,0)" fill="rgb(186,224,189)"/><g id="Group"><path d=" M 313.905 248.546 L 313.905 276.592 L 306.719 276.592 L 306.719 248.546 L 313.905 248.546 Z  M 316.301 246.677 L 304.323 246.677 L 304.323 278.462 L 316.301 278.462 L 316.301 246.677 L 316.301 246.677 Z " fill-rule="evenodd" fill="rgb(94,156,118)"/></g></g><g id="Group"><rect x="291.148" y="256.96" width="9.582" height="20.567" transform="matrix(1,0,0,1,0,0)" fill="rgb(186,224,189)"/><g id="Group"><path d=" M 299.532 257.895 L 299.532 276.592 L 292.345 276.592 L 292.345 257.895 L 299.532 257.895 Z  M 301.928 256.025 L 289.95 256.025 L 289.95 278.462 L 301.928 278.462 L 301.928 256.025 L 301.928 256.025 Z " fill-rule="evenodd" fill="rgb(94,156,118)"/></g></g><g id="Group"><rect x="348.641" y="245.742" width="9.582" height="31.785" transform="matrix(1,0,0,1,0,0)" fill="rgb(186,224,189)"/><g id="Group"><path d=" M 357.025 246.677 L 357.025 276.592 L 349.839 276.592 L 349.839 246.677 L 357.025 246.677 Z  M 359.421 244.807 L 347.443 244.807 L 347.443 278.462 L 359.421 278.462 L 359.421 244.807 L 359.421 244.807 Z " fill-rule="evenodd" fill="rgb(94,156,118)"/></g></g><path d=" M 369.003 213.021 L 352.234 222.37 L 342.652 218.631 L 323.488 229.849 L 313.905 226.11 L 292.345 239.198" fill="none" vector-effect="non-scaling-stroke" stroke-width="2.5" stroke="rgb(94,156,118)" stroke-linejoin="miter" stroke-linecap="butt" stroke-miterlimit="10"/><g id="Group"><path d=" M 362.312 210.217 L 372.597 210.217 L 372.597 218.244 L 362.312 210.217 Z " fill="rgb(186,224,189)"/><g id="Group"><path d=" M 371.399 211.152 L 371.399 215.987 L 365.204 211.152 L 371.399 211.152 Z  M 373.794 209.282 L 359.421 209.282 L 373.794 220.5 L 373.794 209.282 L 373.794 209.282 Z " fill-rule="evenodd" fill="rgb(94,156,118)"/></g></g></g></g></g><g id="garmin"><g id="box"><g id="Group"><rect x="314.743" y="123.373" width="121.995" height="90.625" transform="matrix(1,0,0,1,0,0)" fill="rgb(194,232,255)"/><g id="Group"><path d=" M 434.995 125.115 L 434.995 212.255 L 316.486 212.255 L 316.486 125.115 L 434.995 125.115 Z  M 438.481 121.63 L 313 121.63 L 313 215.74 L 438.481 215.74 L 438.481 121.63 L 438.481 121.63 Z " fill-rule="evenodd" fill="rgb(116,150,196)"/></g></g><g id="Group"><rect x="314.743" y="92.003" width="121.995" height="31.37" transform="matrix(1,0,0,1,0,0)" fill="rgb(139,183,240)"/><path d=" M 434.995 93.745 L 434.995 121.63 L 316.486 121.63 L 316.486 93.745 L 434.995 93.745 Z  M 438.481 90.26 L 313 90.26 L 313 125.115 L 438.481 125.115 L 438.481 90.26 L 438.481 90.26 Z " fill-rule="evenodd" fill="rgb(78,122,181)"/></g><rect x="365.284" y="100.716" width="62.74" height="13.942" transform="matrix(1,0,0,1,0,0)" fill="rgb(255,255,255)"/><path d=" M 323.457 107.688 C 323.457 103.84 326.58 100.716 330.428 100.716 C 334.275 100.716 337.399 103.84 337.399 107.688 C 337.399 111.535 334.275 114.659 330.428 114.659 C 326.58 114.659 323.457 111.535 323.457 107.688 Z " fill="rgb(194,232,255)"/><path d=" M 344.37 107.688 C 344.37 103.84 347.494 100.716 351.341 100.716 C 355.189 100.716 358.312 103.84 358.312 107.688 C 358.312 111.535 355.189 114.659 351.341 114.659 C 347.494 114.659 344.37 111.535 344.37 107.688 Z " fill="rgb(194,232,255)"/></g><clipPath id="_clipPath_QDo2QMdsw7kd1Fiqs6LCTClxSJxAieAP"><path d=" M 323.27 146.494 L 323.27 175.506 L 430.211 175.506 L 430.211 146.494 L 323.27 146.494 Z " fill="rgb(255,255,255)"/></clipPath><g clip-path="url(#_clipPath_QDo2QMdsw7kd1Fiqs6LCTClxSJxAieAP)"><path d=" M 421.895 156.772 L 412.246 156.772 C 411.892 156.772 411.589 156.596 411.412 156.289 C 411.235 155.983 411.235 155.633 411.412 155.327 L 416.237 146.975 C 416.414 146.669 416.717 146.494 417.071 146.494 C 417.424 146.494 417.728 146.669 417.904 146.975 L 422.728 155.327 C 422.906 155.633 422.906 155.984 422.729 156.29 C 422.552 156.596 422.248 156.772 421.895 156.772 Z " fill-rule="evenodd" fill="rgb(0,129,196)"/><path d=" M 428.207 173.684 L 428.589 173.684 C 428.836 173.684 428.994 173.633 428.994 173.376 C 428.994 173.152 428.794 173.087 428.589 173.087 L 428.207 173.087 L 428.207 173.684 Z  M 427.885 172.836 L 428.64 172.836 C 429.092 172.836 429.316 173.017 429.316 173.39 C 429.316 173.707 429.116 173.935 428.808 173.935 L 429.368 174.807 L 429.027 174.807 L 428.477 173.935 L 428.207 173.935 L 428.207 174.807 L 427.885 174.807 L 427.885 172.836 Z  M 428.533 175.254 C 429.307 175.254 429.889 174.63 429.889 173.823 C 429.889 173.017 429.307 172.393 428.533 172.393 C 427.751 172.393 427.167 173.017 427.167 173.823 C 427.167 174.63 427.751 175.254 428.533 175.254 Z  M 428.529 172.141 C 429.456 172.141 430.211 172.896 430.211 173.823 C 430.211 174.751 429.456 175.506 428.529 175.506 C 427.601 175.506 426.846 174.751 426.846 173.823 C 426.846 172.896 427.601 172.141 428.529 172.141 Z  M 323.27 167.821 C 323.27 175.024 330.638 175.39 332.115 175.39 C 337.004 175.39 339.07 174.069 339.156 174.012 C 339.462 173.839 339.834 173.49 339.834 172.836 L 339.834 167.864 C 339.834 167.406 339.461 167.033 339.003 167.033 L 332.861 167.033 C 332.402 167.033 332.1 167.406 332.1 167.864 L 332.1 168.379 C 332.1 168.838 332.402 169.212 332.861 169.212 L 336.414 169.212 C 336.757 169.212 337.035 169.491 337.035 169.833 C 337.035 169.833 337.032 172.013 337.032 172.151 C 336.33 172.438 333.133 173.371 330.564 172.759 C 326.838 171.868 326.548 168.793 326.548 167.873 C 326.548 167.1 326.779 163.228 331.356 162.836 C 335.06 162.519 337.499 164.015 337.523 164.03 C 337.959 164.255 338.41 164.095 338.652 163.634 C 338.653 163.63 339.114 162.697 339.114 162.697 C 339.306 162.313 339.242 161.915 338.773 161.597 C 338.742 161.579 336.145 160.172 332.116 160.172 C 323.518 160.172 323.27 167.038 323.27 167.821 Z  M 387.799 168.797 C 387.604 169.146 387.285 169.145 387.093 168.795 L 382.908 161.109 C 382.73 160.752 382.365 160.459 381.857 160.459 L 379.586 160.459 C 379.186 160.459 378.859 160.785 378.859 161.186 L 378.859 174.537 C 378.859 174.937 379.122 175.21 379.586 175.21 L 380.997 175.21 C 381.398 175.21 381.687 174.958 381.687 174.572 C 381.687 174.387 381.692 164.861 381.707 164.861 C 381.723 164.861 386.932 174.569 386.932 174.569 C 387.12 174.922 387.583 174.923 387.776 174.572 C 387.776 174.572 393.027 164.889 393.042 164.889 C 393.059 164.889 393.053 174.294 393.053 174.572 C 393.053 174.958 393.362 175.21 393.762 175.21 L 395.387 175.21 C 395.788 175.21 396.114 175.011 396.114 174.483 L 396.114 161.186 C 396.114 160.785 395.788 160.459 395.387 160.459 L 393.211 160.459 C 392.656 160.459 392.322 160.742 392.123 161.09 L 387.799 168.797 Z  M 422.709 160.459 C 422.309 160.459 421.985 160.722 421.985 161.107 C 421.985 161.292 421.99 169.659 421.99 169.659 C 421.99 170.059 421.763 170.151 421.486 169.863 L 412.923 160.981 C 412.645 160.693 412.238 160.459 411.69 160.459 L 410.08 160.459 C 409.573 160.459 409.352 160.729 409.352 161.003 C 409.352 161.275 409.352 174.403 409.352 174.677 C 409.352 174.95 409.612 175.21 410.012 175.21 L 411.625 175.21 C 412.024 175.21 412.304 174.993 412.304 174.624 C 412.304 174.44 412.313 165.616 412.313 165.616 C 412.313 165.216 412.539 165.125 412.816 165.413 L 421.744 174.695 C 422.027 174.979 422.372 175.21 422.985 175.21 L 424.196 175.21 C 424.596 175.21 424.923 174.883 424.923 174.483 L 424.923 161.186 C 424.923 160.785 424.596 160.459 424.196 160.459 L 422.709 160.459 Z  M 370.122 166.876 C 369.673 166.98 369.168 167 369.168 167 C 368.768 167.018 368.114 167.032 367.714 167.032 L 364.319 167.032 C 363.919 167.032 363.592 166.705 363.592 166.305 L 363.592 163.596 C 363.592 163.196 363.919 162.868 364.319 162.868 L 367.714 162.868 C 368.114 162.868 368.768 162.883 369.168 162.9 C 369.168 162.9 369.673 162.92 370.122 163.023 C 370.57 163.127 370.926 163.271 371.187 163.458 C 371.449 163.646 371.635 163.866 371.748 164.119 C 371.859 164.373 371.916 164.648 371.916 164.949 C 371.916 165.249 371.859 165.526 371.748 165.779 C 371.635 166.032 371.449 166.253 371.187 166.44 C 370.926 166.628 370.57 166.774 370.122 166.876 Z  M 371.501 169.591 C 371.271 169.264 371.397 168.902 371.78 168.788 C 371.78 168.788 373.304 168.332 374.033 167.678 C 374.763 167.022 375.13 166.075 375.13 164.841 C 375.13 164.034 374.989 163.355 374.708 162.803 C 374.427 162.252 374.024 161.802 373.5 161.457 C 372.975 161.11 372.348 160.856 371.618 160.697 C 370.886 160.538 369.899 160.492 369.899 160.492 C 369.499 160.474 368.845 160.459 368.446 160.459 L 361.122 160.459 C 360.722 160.459 360.395 160.785 360.395 161.186 L 360.395 174.554 C 360.395 174.955 360.722 175.21 361.122 175.21 L 362.855 175.21 C 363.255 175.21 363.582 174.955 363.582 174.554 C 363.582 174.554 363.584 169.237 363.587 169.237 C 363.59 169.237 363.592 169.234 363.592 169.23 C 363.592 169.226 366.877 169.222 366.877 169.222 C 367.277 169.222 367.793 169.49 368.024 169.817 L 371.435 174.619 C 371.752 175.045 372.053 175.21 372.453 175.21 L 374.718 175.21 C 375.118 175.21 375.181 174.833 375.043 174.637 C 374.905 174.442 371.501 169.591 371.501 169.591 Z  M 401.055 161.213 C 401.055 161.343 401.055 174.327 401.055 174.589 C 401.055 174.958 401.382 175.21 401.783 175.21 L 403.546 175.21 C 403.947 175.21 404.274 174.955 404.274 174.554 L 404.274 161.186 C 404.274 160.785 404.015 160.459 403.615 160.459 L 401.783 160.459 C 401.382 160.459 401.055 160.705 401.055 161.213 Z  M 347.108 171.028 C 346.708 171.028 346.52 170.73 346.688 170.368 L 349.231 164.92 C 349.4 164.557 349.674 164.559 349.839 164.922 L 352.315 170.37 C 352.481 170.734 352.289 171.032 351.889 171.032 L 347.108 171.028 Z  M 351.185 161.109 C 351.007 160.751 350.534 160.459 350.134 160.459 L 349.32 160.459 C 348.92 160.459 348.452 160.754 348.279 161.115 L 341.825 174.598 C 341.646 174.955 341.841 175.21 342.241 175.21 L 343.733 175.21 C 344.321 175.21 344.591 174.943 344.75 174.614 C 344.911 174.286 345.266 173.573 345.334 173.427 C 345.426 173.231 345.71 173.11 346.11 173.11 L 353.054 173.114 C 353.454 173.115 353.711 173.191 353.829 173.427 C 353.906 173.581 354.261 174.223 354.436 174.573 C 354.612 174.923 354.908 175.21 355.481 175.21 L 357.645 175.21 C 358.045 175.21 358.22 174.906 358.076 174.624 C 357.932 174.341 351.185 161.109 351.185 161.109 Z " fill-rule="evenodd" fill="rgb(55,53,53)"/></g></g><g id="strava"><g id="Group"><g id="Navigation Toolbar Top "><g id="Group"><rect x="270.746" y="60.085" width="122.251" height="90.815" transform="matrix(1,0,0,1,0,0)" fill="rgb(194,232,255)"/><g id="Group"><path d=" M 391.251 61.832 L 391.251 149.154 L 272.493 149.154 L 272.493 61.832 L 391.251 61.832 Z  M 394.744 58.339 L 269 58.339 L 269 152.647 L 394.744 152.647 L 394.744 58.339 L 394.744 58.339 Z " fill-rule="evenodd" fill="rgb(116,150,196)"/></g></g><g id="Group"><rect x="270.746" y="28.649" width="122.251" height="31.436" transform="matrix(1,0,0,1,0,0)" fill="rgb(139,183,240)"/><path d=" M 391.251 30.396 L 391.251 58.339 L 272.493 58.339 L 272.493 30.396 L 391.251 30.396 Z  M 394.744 26.903 L 269 26.903 L 269 61.832 L 394.744 61.832 L 394.744 26.903 L 394.744 26.903 Z " fill-rule="evenodd" fill="rgb(78,122,181)"/></g><rect x="321.393" y="37.381" width="62.872" height="13.972" transform="matrix(1,0,0,1,0,0)" fill="rgb(255,255,255)"/><path d=" M 279.479 44.367 C 279.479 40.512 282.609 37.381 286.464 37.381 C 290.32 37.381 293.45 40.512 293.45 44.367 C 293.45 48.223 290.32 51.353 286.464 51.353 C 282.609 51.353 279.479 48.223 279.479 44.367 Z " fill="rgb(194,232,255)"/><path d=" M 300.436 44.367 C 300.436 40.512 303.566 37.381 307.422 37.381 C 311.277 37.381 314.408 40.512 314.408 44.367 C 314.408 48.223 311.277 51.353 307.422 51.353 C 303.566 51.353 300.436 48.223 300.436 44.367 Z " fill="rgb(194,232,255)"/></g></g><path d=" M 325.943 101.326 L 322.874 101.326 L 322.874 97.562 L 325.538 97.562 C 326.727 97.562 328.187 97.871 328.142 99.352 C 328.1 100.682 327.29 101.326 325.943 101.326 Z  M 334.224 109.78 L 330.865 104.916 C 331.518 104.571 331.749 104.475 332.358 103.976 C 333.643 102.923 334.308 101.782 334.59 100.128 C 335.006 97.673 334.239 95.419 332.327 93.842 C 330.912 92.675 328.531 92.118 326.58 92.118 L 316.388 92.118 L 316.388 111.576 L 322.874 111.576 L 322.874 106.016 C 324.503 106.016 324.162 105.864 324.681 106.642 L 327.769 111.313 C 327.877 111.493 327.878 111.576 328.144 111.576 L 339.436 111.576 L 343.837 103.237 L 348.122 111.576 L 354.27 111.576 L 343.836 90.903 L 334.224 109.78 Z  M 289.176 104.737 C 289.885 104.879 291.722 105.234 291.228 106.219 C 290.651 107.367 286.476 106.428 285.252 105.881 C 283.673 105.119 283.679 105.119 282.858 104.511 L 279.384 108.68 C 282.811 110.975 284.973 111.906 289.351 111.885 C 293.585 111.864 297.61 110.29 297.889 105.989 C 298.276 100.034 292.909 99.926 288.735 98.783 C 288.076 98.603 286.893 98.394 287.101 97.479 C 287.261 96.776 288.848 96.896 289.464 96.959 C 291.086 97.125 293.01 97.874 294.267 98.778 L 297.452 94.435 C 294.551 92.431 292.032 91.645 288.503 91.739 C 284.492 91.845 280.728 93.453 280.444 98.017 C 280.139 102.929 285.41 103.984 289.176 104.737 Z  M 297.51 97.62 L 303.243 97.62 L 303.243 111.576 L 309.786 111.576 L 309.786 97.62 L 315.519 97.62 L 315.519 92.118 L 297.51 92.118 L 297.51 97.62 Z  M 358.315 112.734 L 368.796 92.118 L 362.542 92.118 L 358.372 100.399 L 354.145 92.118 L 347.891 92.118 L 358.315 112.734 Z  M 378.525 94.898 L 378.93 94.898 L 379.046 92.813 L 379.741 94.84 L 379.913 94.84 L 379.915 94.84 L 380.087 94.84 L 380.782 92.813 L 380.898 94.898 L 381.303 94.898 L 381.13 92.292 L 380.551 92.292 L 379.914 94.259 L 379.278 92.292 L 378.699 92.292 L 378.525 94.898 Z  M 376.44 92.639 L 377.251 92.639 L 377.251 94.898 L 377.656 94.898 L 377.656 92.639 L 378.467 92.639 L 378.467 92.292 L 376.44 92.292 L 376.44 92.639 Z  M 372.85 90.931 L 383.331 111.547 L 377.077 111.547 L 372.908 103.266 L 368.68 111.547 L 362.426 111.547 L 372.85 90.931 Z " fill-rule="evenodd" fill="rgb(255,153,0)"/></g><g id="bike"><g id="Group"><rect x="41" y="235" width="171.835" height="18.715" transform="matrix(1,0,0,1,0,0)" fill="rgb(209,209,209)"/><path d=" M 124.917 182.541 C 124.917 159.062 143.979 140 167.459 140 C 190.938 140 210 159.062 210 182.541 C 210 206.021 190.938 225.083 167.459 225.083 C 143.979 225.083 124.917 206.021 124.917 182.541 Z " fill="rgb(194,232,255)"/><path d=" M 55 190.829 C 55 180.894 63.066 172.829 73 172.829 C 82.934 172.829 91 180.894 91 190.829 C 91 200.763 82.934 208.829 73 208.829 C 63.066 208.829 55 200.763 55 190.829 Z " fill="rgb(194,232,255)"/><path d=" M 165.818 226.972 C 190.552 226.972 210.677 206.851 210.677 182.113 C 210.677 157.376 190.552 137.251 165.818 137.251 C 141.084 137.251 120.96 157.376 120.96 182.113 C 120.96 206.851 141.084 226.972 165.818 226.972 Z  M 165.818 143.584 C 187.06 143.584 204.344 160.865 204.344 182.11 C 204.344 203.352 187.063 220.636 165.818 220.636 C 144.573 220.636 127.292 203.355 127.292 182.113 C 127.292 160.868 144.573 143.584 165.818 143.584 Z " fill="rgb(84,110,122)"/><path d=" M 158.758 140.861 L 165.023 139.959 L 158.583 95.179 C 197.205 87.761 194.466 60.06 194.431 59.775 L 188.143 60.503 L 191.287 60.139 L 188.14 60.484 C 188.238 61.437 190.157 83.92 154.531 89.455 L 151.437 89.936 L 158.758 140.861 Z " fill="rgb(84,110,122)"/><rect x="59.285" y="99.605" width="6.332" height="75.715" transform="matrix(0.982,-0.187,0.187,0.982,-24.542,14.06)" fill="rgb(84,110,122)"/><rect x="75.696" y="209.176" width="6.332" height="26.804" transform="matrix(0.983,-0.186,0.186,0.983,-39.941,18.505)" fill="rgb(84,110,122)"/><rect x="144.98" y="226.615" width="13.599" height="6.336" transform="matrix(0.477,-0.879,0.879,0.477,-122.578,253.551)" fill="rgb(84,110,122)"/><path d=" M 39.617 255.715 L 215.835 255.715 L 215.835 232.582 L 39.617 232.582 L 39.617 255.715 Z  M 209.502 249.382 L 45.949 249.382 L 45.949 238.915 L 209.502 238.915 L 209.502 249.382 Z " fill="rgb(84,110,122)"/><rect x="34" y="95.531" width="50.393" height="6.332" transform="matrix(1,0,0,1,0,0)" fill="rgb(84,110,122)"/><path d=" M 98.609 175.046 C 103.973 130.324 158.811 123.532 159.362 123.469 L 158.64 117.178 C 158.039 117.247 98.274 124.66 92.318 174.293 L 98.609 175.046 Z " fill="rgb(84,110,122)"/><path d=" M 73.511 212.572 C 85.463 212.572 95.193 202.849 95.193 190.893 C 95.193 178.938 85.466 169.211 73.511 169.211 C 61.555 169.211 51.832 178.938 51.832 190.893 C 51.832 202.849 61.555 212.572 73.511 212.572 Z  M 73.511 175.543 C 81.974 175.543 88.861 182.43 88.861 190.893 C 88.861 199.356 81.974 206.24 73.511 206.24 C 65.048 206.24 58.164 199.356 58.164 190.893 C 58.164 182.43 65.048 175.543 73.511 175.543 Z " fill="rgb(84,110,122)"/><path d=" M 80.511 211.397 L 171.267 186.717 L 171.267 176.952 L 75.243 169.221 L 74.733 175.537 L 162.323 182.585 L 78.846 205.287 L 80.511 211.397 Z " fill="rgb(84,110,122)"/></g></g></g></svg>