<?xml version="1.0" standalone="no"?><!-- Generator: Gravit.io --><svg xmlns="http://www.w3.org/2000/svg" xmlns:xlink="http://www.w3.org/1999/xlink" style="isolation:isolate" viewBox="0 0 600 600" width="600" height="600"><defs><clipPath id="_clipPath_roDrRnwCoejYC323nOCAGwnoTZ6df2BV"><rect width="600" height="600"/></clipPath></defs><g clip-path="url(#_clipPath_roDrRnwCoejYC323nOCAGwnoTZ6df2BV)"><path d="M 69 0 L 531 0 C 569.082 0 600 30.918 600 69 L 600 531 C 600 569.082 569.082 600 531 600 L 69 600 C 30.918 600 0 569.082 0 531 L 0 69 C 0 30.918 30.918 0 69 0 Z" style="stroke:none;fill:#EEEEEE;stroke-miterlimit:10;"/><g id="bike"><g id="Group"><rect x="70.408" y="500.604" width="463.985" height="50.533" transform="matrix(1,0,0,1,0,0)" fill="rgb(209,209,209)"/><path d=" M 297 358.956 C 297 295.557 348.471 244.086 411.87 244.086 C 475.268 244.086 526.739 295.557 526.739 358.956 C 526.739 422.354 475.268 473.825 411.87 473.825 C 348.471 473.825 297 422.354 297 358.956 Z " fill="rgb(194,232,255)"/><path d=" M 108.21 381.333 C 108.21 354.508 129.989 332.729 156.814 332.729 C 183.639 332.729 205.417 354.508 205.417 381.333 C 205.417 408.158 183.639 429.936 156.814 429.936 C 129.989 429.936 108.21 408.158 108.21 381.333 Z " fill="rgb(194,232,255)"/><path d=" M 407.44 478.927 C 474.227 478.927 528.567 424.596 528.567 357.8 C 528.567 291.004 474.227 236.665 407.44 236.665 C 340.653 236.665 286.313 291.004 286.313 357.8 C 286.313 424.596 340.653 478.927 407.44 478.927 Z  M 407.44 253.763 C 464.797 253.763 511.468 300.425 511.468 357.791 C 511.468 415.149 464.806 461.819 407.44 461.819 C 350.074 461.819 303.412 415.157 303.412 357.8 C 303.412 300.434 350.074 253.763 407.44 253.763 Z " fill="rgb(84,110,122)"/><path d=" M 388.375 246.411 L 405.294 243.974 L 387.905 123.061 C 492.189 103.03 484.794 28.232 484.7 27.463 L 467.721 29.429 L 476.211 28.446 L 467.713 29.378 C 467.978 31.951 473.159 92.66 376.962 107.604 L 368.609 108.904 L 388.375 246.411 Z " fill="rgb(84,110,122)"/><rect x="119.779" y="135.012" width="17.098" height="204.446" transform="matrix(0.982,-0.187,0.187,0.982,-41.995,28.097)" fill="rgb(84,110,122)"/><rect x="164.094" y="430.874" width="17.098" height="72.377" transform="matrix(0.983,-0.186,0.186,0.983,-83.689,40.159)" fill="rgb(84,110,122)"/><rect x="351.172" y="477.962" width="36.721" height="17.108" transform="matrix(0.477,-0.879,0.879,0.477,-234.343,579.177)" fill="rgb(84,110,122)"/><path d=" M 66.673 556.537 L 542.494 556.537 L 542.494 494.076 L 66.673 494.076 L 66.673 556.537 Z  M 525.395 539.439 L 83.771 539.439 L 83.771 511.175 L 525.395 511.175 L 525.395 539.439 Z " fill="rgb(84,110,122)"/><rect x="51.506" y="124.01" width="136.071" height="17.099" transform="matrix(1,0,0,1,0,0)" fill="rgb(84,110,122)"/><path d=" M 225.964 338.718 C 240.446 217.959 388.52 199.62 390.008 199.449 L 388.059 182.462 C 386.434 182.65 225.057 202.664 208.976 336.683 L 225.964 338.718 Z " fill="rgb(84,110,122)"/><path d=" M 158.193 440.044 C 190.467 440.044 216.739 413.789 216.739 381.507 C 216.739 349.225 190.476 322.961 158.193 322.961 C 125.911 322.961 99.656 349.225 99.656 381.507 C 99.656 413.789 125.911 440.044 158.193 440.044 Z  M 158.193 340.06 C 181.046 340.06 199.64 358.655 199.64 381.507 C 199.64 404.359 181.046 422.946 158.193 422.946 C 135.341 422.946 116.755 404.359 116.755 381.507 C 116.755 358.655 135.341 340.06 158.193 340.06 Z " fill="rgb(84,110,122)"/><path d=" M 177.096 436.872 L 422.153 370.231 L 422.153 343.864 L 162.87 322.987 L 161.493 340.043 L 398.002 359.074 L 172.599 420.372 L 177.096 436.872 Z " fill="rgb(84,110,122)"/></g></g></g></svg>