<?xml version="1.0" standalone="no"?><!-- Generator: Gravit.io --><svg xmlns="http://www.w3.org/2000/svg" xmlns:xlink="http://www.w3.org/1999/xlink" style="isolation:isolate" viewBox="0 0 800 400" width="800" height="400"><defs><clipPath id="_clipPath_afg58vyi07sXyDErqDM8jYEu41T7AZsQ"><rect width="800" height="400"/></clipPath></defs><g clip-path="url(#_clipPath_afg58vyi07sXyDErqDM8jYEu41T7AZsQ)"><g id="grey base"><path d=" M 30 243.301 L 170 324.13 L 170 347.224 L 30 266.395 L 30 243.301 Z " fill="rgb(139,139,139)" vector-effect="non-scaling-stroke" stroke-width="1" stroke="rgb(46,46,46)" stroke-linejoin="miter" stroke-linecap="square" stroke-miterlimit="3"/><path d=" M 170 324.13 L 470 150.925 L 470 174.019 L 170 347.224 L 170 324.13 Z " fill="rgb(139,139,139)" vector-effect="non-scaling-stroke" stroke-width="1" stroke="rgb(46,46,46)" stroke-linejoin="miter" stroke-linecap="square" stroke-miterlimit="3"/></g><g id="red"><path d=" M 50 208.66 L 190 289.489 L 170 324.13 L 30 243.301 L 50 208.66 Z " fill="rgb(223,71,71)" vector-effect="non-scaling-stroke" stroke-width="1" stroke="rgb(152,0,0)" stroke-linejoin="miter" stroke-linecap="square" stroke-miterlimit="3"/><path d=" M 190 289.489 L 460 133.605 L 470 150.925 L 170 324.13 L 190 289.489 Z " fill="rgb(223,71,71)" vector-effect="non-scaling-stroke" stroke-width="1" stroke="rgb(152,0,0)" stroke-linejoin="miter" stroke-linecap="square" stroke-miterlimit="3"/><path d=" M 320 52.776 L 460 133.605 L 190 289.489 L 50 208.66 L 320 52.776 Z " fill="rgb(223,71,71)" vector-effect="non-scaling-stroke" stroke-width="1" stroke="rgb(152,0,0)" stroke-linejoin="miter" stroke-linecap="square" stroke-miterlimit="3"/><path d=" M 120 197.113 L 145 211.547 L 115 228.868 L 90 214.434 L 120 197.113 Z " fill="rgb(223,71,71)" vector-effect="non-scaling-stroke" stroke-width="1" stroke="rgb(152,0,0)" stroke-linejoin="miter" stroke-linecap="square" stroke-miterlimit="3"/><path d=" M 150 214.434 L 180 231.754 L 150 249.075 L 120 231.754 L 150 214.434 Z " fill="rgb(223,71,71)" vector-effect="non-scaling-stroke" stroke-width="1" stroke="rgb(152,0,0)" stroke-linejoin="miter" stroke-linecap="square" stroke-miterlimit="3"/><path d=" M 185 234.641 L 210 249.075 L 180 266.395 L 155 251.962 L 185 234.641 Z " fill="rgb(223,71,71)" vector-effect="non-scaling-stroke" stroke-width="1" stroke="rgb(152,0,0)" stroke-linejoin="miter" stroke-linecap="square" stroke-miterlimit="3"/><path d=" M 390 116.284 L 415 130.718 L 395 142.265 L 370 127.831 L 390 116.284 Z " fill="rgb(223,71,71)" vector-effect="non-scaling-stroke" stroke-width="1" stroke="rgb(139,139,139)" stroke-linejoin="miter" stroke-linecap="square" stroke-miterlimit="3"/></g><path d=" M 290 93.19 L 390 150.925 L 230 243.301 L 130 185.566 L 290 93.19 Z " fill="rgb(139,139,139)" vector-effect="non-scaling-stroke" stroke-width="1" stroke="rgb(46,46,46)" stroke-linejoin="miter" stroke-linecap="square" stroke-miterlimit="3"/><path d=" M 130 185.566 L 290 93.19 L 290 98.964 L 135 188.453 L 130 185.566 Z " fill="rgb(70,70,70)"/><path d=" M 290 98.964 L 290 93.19 L 390 150.925 L 385 153.812 L 290 98.964 Z " fill="rgb(70,70,70)"/><g id="Group"><path d=" M 205.218 212.477 L 203.378 211.414 L 206.438 209.647 L 202.758 207.522 L 205.819 205.755 L 206.739 206.287 L 208.269 205.403 L 209.189 205.934 L 210.719 205.051 L 211.639 205.582 L 213.17 204.699 L 215.93 206.292 L 209.809 209.826 L 210.729 210.357 L 209.198 211.241 L 208.278 210.71 L 205.218 212.477 Z  M 207.659 206.818 L 206.128 207.701 L 207.969 208.764 L 211.029 206.997 L 210.109 206.466 L 208.579 207.349 L 207.659 206.818 Z  M 212.578 216.726 L 207.978 214.07 L 209.508 213.187 L 208.588 212.656 L 210.118 211.772 L 211.959 212.834 L 210.428 213.718 L 213.189 215.311 L 216.249 213.544 L 213.489 211.951 L 215.019 211.067 L 215.939 211.599 L 217.469 210.715 L 218.39 211.246 L 219.92 210.363 L 217.16 208.769 L 218.69 207.886 L 224.21 211.073 L 222.68 211.956 L 221.76 211.425 L 220.23 212.309 L 219.31 211.777 L 217.779 212.661 L 218.699 213.192 L 217.169 214.076 L 218.089 214.607 L 215.029 216.374 L 214.109 215.843 L 212.578 216.726 Z  M 224.22 216.379 L 222.38 215.317 L 225.44 213.55 L 227.28 214.612 L 224.22 216.379 Z  M 219.629 219.03 L 217.789 217.967 L 220.849 216.2 L 222.689 217.263 L 219.629 219.03 Z  M 226.379 224.694 L 223.619 223.101 L 225.149 222.217 L 224.229 221.686 L 225.76 220.802 L 224.839 220.271 L 229.43 217.621 L 230.35 218.152 L 231.881 217.268 L 232.801 217.8 L 234.331 216.916 L 237.091 218.51 L 235.561 219.393 L 236.481 219.924 L 234.951 220.808 L 235.871 221.339 L 231.28 223.99 L 230.36 223.458 L 228.83 224.342 L 227.909 223.811 L 226.379 224.694 Z  M 227.6 221.865 L 226.069 222.748 L 227.909 223.811 L 234.031 220.277 L 233.111 219.745 L 234.641 218.862 L 232.801 217.8 L 226.68 221.334 L 227.6 221.865 Z  M 234.66 229.475 L 230.059 226.819 L 231.59 225.935 L 230.67 225.404 L 232.2 224.521 L 234.04 225.583 L 232.51 226.467 L 235.27 228.06 L 239.861 225.41 L 235.26 222.754 L 239.851 220.103 L 245.372 223.29 L 243.841 224.174 L 240.161 222.049 L 238.631 222.933 L 242.311 225.057 L 240.781 225.941 L 241.701 226.472 L 237.11 229.123 L 236.19 228.591 L 234.66 229.475 Z  M 161.975 187.51 L 156.455 184.323 L 157.985 183.44 L 159.825 184.502 L 165.946 180.968 L 165.026 180.437 L 166.556 179.553 L 167.476 180.085 L 169.007 179.201 L 170.847 180.263 L 161.665 185.564 L 163.505 186.627 L 161.975 187.51 Z  M 168.415 191.229 L 163.815 188.573 L 165.345 187.689 L 164.425 187.158 L 165.956 186.275 L 167.796 187.337 L 166.265 188.22 L 169.026 189.814 L 173.616 187.164 L 169.016 184.508 L 173.607 181.857 L 179.127 185.044 L 177.597 185.928 L 173.917 183.803 L 172.387 184.686 L 176.067 186.811 L 174.536 187.695 L 175.457 188.226 L 170.866 190.876 L 169.946 190.345 L 168.415 191.229 Z  M 180.057 190.882 L 178.217 189.82 L 181.277 188.053 L 183.117 189.115 L 180.057 190.882 Z  M 175.466 193.532 L 173.626 192.47 L 176.686 190.703 L 178.527 191.765 L 175.466 193.532 Z  M 184.056 200.259 L 178.536 197.072 L 180.066 196.188 L 181.906 197.251 L 188.028 193.717 L 187.107 193.186 L 188.638 192.302 L 189.558 192.833 L 191.088 191.95 L 192.928 193.012 L 183.747 198.313 L 185.587 199.376 L 184.056 200.259 Z  M 191.417 204.509 L 184.976 200.79 L 188.037 199.023 L 188.957 199.554 L 190.487 198.671 L 191.407 199.202 L 192.938 198.319 L 194.778 199.381 L 196.308 198.498 L 197.228 199.029 L 198.758 198.145 L 195.998 196.552 L 194.468 197.435 L 192.628 196.373 L 194.158 195.489 L 195.078 196.02 L 196.608 195.137 L 201.209 197.793 L 199.678 198.676 L 200.599 199.208 L 197.538 200.975 L 196.618 200.443 L 195.088 201.327 L 194.168 200.796 L 192.637 201.679 L 190.797 200.617 L 189.267 201.5 L 192.947 203.625 L 191.417 204.509 Z  M 239.466 175.705 L 234.865 173.049 L 236.395 172.166 L 235.475 171.635 L 237.006 170.751 L 238.846 171.814 L 237.316 172.697 L 240.076 174.291 L 243.136 172.524 L 240.376 170.93 L 241.906 170.047 L 242.826 170.578 L 244.357 169.694 L 245.277 170.225 L 246.807 169.342 L 244.047 167.748 L 245.577 166.865 L 251.097 170.052 L 249.567 170.936 L 248.647 170.404 L 247.117 171.288 L 246.197 170.757 L 244.667 171.64 L 245.587 172.171 L 244.056 173.055 L 244.976 173.586 L 241.916 175.353 L 240.996 174.822 L 239.466 175.705 Z  M 245.906 179.424 L 243.146 177.83 L 244.676 176.947 L 243.756 176.415 L 245.286 175.532 L 244.366 175.001 L 248.957 172.35 L 249.877 172.881 L 251.407 171.998 L 252.327 172.529 L 253.858 171.646 L 256.618 173.239 L 255.088 174.123 L 256.008 174.654 L 254.477 175.537 L 255.397 176.069 L 250.807 178.719 L 249.887 178.188 L 248.356 179.071 L 247.436 178.54 L 245.906 179.424 Z  M 247.126 176.594 L 245.596 177.478 L 247.436 178.54 L 253.557 175.006 L 252.637 174.475 L 254.167 173.592 L 252.327 172.529 L 246.206 176.063 L 247.126 176.594 Z  M 253.266 183.673 L 250.506 182.08 L 252.037 181.196 L 251.116 180.665 L 252.647 179.782 L 251.727 179.25 L 256.317 176.6 L 257.238 177.131 L 258.768 176.248 L 259.688 176.779 L 261.218 175.895 L 263.978 177.489 L 262.448 178.372 L 263.368 178.904 L 261.838 179.787 L 262.758 180.318 L 258.167 182.969 L 257.247 182.438 L 255.717 183.321 L 254.797 182.79 L 253.266 183.673 Z  M 254.487 180.844 L 252.957 181.727 L 254.797 182.79 L 260.918 179.256 L 259.998 178.725 L 261.528 177.841 L 259.688 176.779 L 253.567 180.313 L 254.487 180.844 Z  M 318.796 164.963 L 313.276 161.776 L 314.806 160.892 L 316.646 161.955 L 322.767 158.421 L 321.847 157.889 L 323.377 157.006 L 324.298 157.537 L 325.828 156.654 L 327.668 157.716 L 318.486 163.017 L 320.326 164.079 L 318.796 164.963 Z  M 326.157 169.212 L 319.716 165.494 L 322.777 163.727 L 323.697 164.258 L 325.227 163.375 L 326.147 163.906 L 327.677 163.022 L 329.518 164.085 L 331.048 163.201 L 331.968 163.733 L 333.498 162.849 L 330.738 161.255 L 329.208 162.139 L 327.368 161.077 L 328.898 160.193 L 329.818 160.724 L 331.348 159.841 L 335.948 162.497 L 334.418 163.38 L 335.338 163.911 L 332.278 165.678 L 331.358 165.147 L 329.827 166.031 L 328.907 165.5 L 327.377 166.383 L 325.537 165.321 L 324.007 166.204 L 327.687 168.329 L 326.157 169.212 Z  M 332.597 172.931 L 327.997 170.275 L 329.527 169.391 L 328.607 168.86 L 330.137 167.977 L 331.977 169.039 L 330.447 169.923 L 333.207 171.516 L 336.268 169.749 L 333.508 168.156 L 335.038 167.272 L 335.958 167.803 L 337.488 166.92 L 338.408 167.451 L 339.939 166.567 L 337.178 164.974 L 338.709 164.09 L 344.229 167.277 L 342.699 168.161 L 341.779 167.63 L 340.248 168.513 L 339.328 167.982 L 337.798 168.866 L 338.718 169.397 L 337.188 170.28 L 338.108 170.811 L 335.047 172.579 L 334.127 172.047 L 332.597 172.931 Z  M 343.28 150.827 L 336.84 147.108 L 339.901 145.341 L 340.821 145.873 L 342.351 144.989 L 343.271 145.52 L 344.801 144.637 L 346.641 145.699 L 348.172 144.816 L 349.092 145.347 L 350.622 144.463 L 347.862 142.87 L 346.332 143.753 L 344.491 142.691 L 346.022 141.807 L 346.942 142.339 L 348.472 141.455 L 353.072 144.111 L 351.542 144.995 L 352.462 145.526 L 349.402 147.293 L 348.482 146.762 L 346.951 147.645 L 346.031 147.114 L 344.501 147.997 L 342.661 146.935 L 341.131 147.819 L 344.811 149.943 L 343.28 150.827 Z  M 350.641 155.076 L 345.121 151.889 L 346.651 151.006 L 348.491 152.068 L 354.612 148.534 L 353.692 148.003 L 355.222 147.119 L 356.142 147.651 L 357.673 146.767 L 359.513 147.829 L 350.331 153.13 L 352.171 154.193 L 350.641 155.076 Z  M 358.001 159.326 L 352.481 156.139 L 354.011 155.255 L 355.851 156.318 L 361.973 152.784 L 361.053 152.252 L 362.583 151.369 L 363.503 151.9 L 365.033 151.017 L 366.873 152.079 L 357.692 157.38 L 359.532 158.442 L 358.001 159.326 Z  M 279.796 114.174 L 277.956 113.112 L 288.668 106.927 L 294.188 110.114 L 292.658 110.998 L 293.578 111.529 L 288.987 114.18 L 288.067 113.648 L 286.537 114.532 L 282.857 112.407 L 279.796 114.174 Z  M 288.978 108.873 L 284.387 111.524 L 287.147 113.117 L 291.738 110.467 L 288.978 108.873 Z  M 290.837 120.549 L 286.237 117.893 L 287.767 117.009 L 286.847 116.478 L 291.438 113.827 L 292.358 114.359 L 293.888 113.475 L 298.488 116.131 L 296.958 117.015 L 297.878 117.546 L 293.287 120.196 L 292.367 119.665 L 290.837 120.549 Z  M 293.278 114.89 L 288.687 117.54 L 291.447 119.134 L 296.038 116.483 L 293.278 114.89 Z  M 302.169 118.256 L 296.048 121.79 L 296.968 122.321 L 295.437 123.205 L 293.597 122.142 L 295.127 121.259 L 294.207 120.727 L 300.329 117.193 L 302.169 118.256 Z  M 303.089 118.787 L 304.009 119.318 L 297.888 122.852 L 296.968 122.321 L 303.089 118.787 Z  M 304.929 119.849 L 306.769 120.912 L 300.648 124.446 L 299.728 123.915 L 298.198 124.798 L 296.357 123.736 L 297.888 122.852 L 298.808 123.383 L 304.929 119.849 Z  M 305.558 129.048 L 300.958 126.392 L 302.488 125.508 L 301.568 124.977 L 306.159 122.327 L 307.079 122.858 L 308.609 121.974 L 313.209 124.63 L 311.679 125.514 L 312.599 126.045 L 309.539 127.812 L 304.938 125.156 L 303.408 126.039 L 307.088 128.164 L 305.558 129.048 Z  M 307.999 123.389 L 306.469 124.272 L 309.229 125.866 L 310.759 124.983 L 307.999 123.389 Z  M 317.81 127.286 L 316.279 128.17 L 317.199 128.701 L 315.669 129.584 L 314.749 129.053 L 310.158 131.704 L 308.318 130.641 L 315.97 126.224 L 317.81 127.286 Z  M 318.73 127.817 L 321.49 129.411 L 319.96 130.294 L 317.199 128.701 L 318.73 127.817 Z " fill-rule="evenodd" fill="rgb(0,0,0)"/></g><line x1="180" y1="168.201" x2="265" y2="217.321" vector-effect="non-scaling-stroke" stroke-width="1" stroke="rgb(0,0,0)" stroke-linejoin="miter" stroke-linecap="square" stroke-miterlimit="3"/><line x1="240" y1="133.605" x2="325" y2="182.679" vector-effect="non-scaling-stroke" stroke-width="1" stroke="rgb(0,0,0)" stroke-linejoin="miter" stroke-linecap="square" stroke-miterlimit="3"/><line x1="270" y1="116.24" x2="355" y2="165.359" vector-effect="non-scaling-stroke" stroke-width="1" stroke="rgb(0,0,0)" stroke-linejoin="miter" stroke-linecap="square" stroke-miterlimit="3"/><path d=" M 348.116 81.012 L 342.504 81.66 L 344.105 82.585 L 326.895 92.521 L 326.158 88.226 C 326.179 87.909 326.367 87.587 326.741 87.359 C 328.293 86.463 329.215 85.93 329.554 85.733 C 330.541 86.038 331.705 85.996 332.44 85.572 C 333.369 85.035 333.253 84.097 332.179 83.477 C 331.105 82.857 329.48 82.79 328.551 83.327 C 327.816 83.751 327.744 84.423 328.27 84.992 L 325.488 86.598 C 324.734 87.033 324.422 87.765 324.479 88.378 C 324.476 88.361 324.473 88.342 324.479 88.379 C 324.482 88.393 325.26 92.936 325.26 92.936 C 325.239 93.252 325.05 93.574 324.677 93.801 L 322.73 94.925 C 320.987 94.217 318.732 94.227 317.37 95.013 C 315.817 95.91 316.011 97.476 317.804 98.512 C 319.598 99.547 322.311 99.66 323.865 98.763 C 325.227 97.976 325.243 96.674 324.015 95.667 L 325.928 94.562 C 325.933 94.559 325.938 94.557 325.942 94.554 L 330.173 92.111 C 330.567 91.897 331.124 91.788 331.672 91.776 C 331.672 91.776 339.539 92.226 339.564 92.227 C 339.627 92.231 339.595 92.229 339.565 92.228 C 340.627 92.26 341.895 92.08 342.649 91.644 L 345.328 90.096 L 346.632 90.849 L 350 88.905 L 346.111 86.659 L 342.743 88.604 L 344.045 89.356 C 344.045 89.356 343.338 89.762 341.33 90.921 C 340.936 91.137 340.378 91.246 339.829 91.258 L 332.388 90.833 L 345.39 83.326 L 346.994 84.252 L 348.116 81.012 Z " fill="rgb(139,139,139)"/></g></svg>