<?xml version="1.0" standalone="no"?><!-- Generator: Gravit.io --><svg xmlns="http://www.w3.org/2000/svg" xmlns:xlink="http://www.w3.org/1999/xlink" style="isolation:isolate" width="571" height="293"><path d="M 104.67480782187334 80.7840036829164 C 103.94639742714116 80.86554285989529 103.29892152071264 81.0693908023429 102.65144561428397 81.39554751025904 C 103.94639742714116 85.30942800525331 105.80789065812337 88.69330384988355 107.10284247098052 92.60718434487782 C 120.05236059955257 92.60718434487782 130.37150785825835 103.00342940970602 130.37150785825835 116.0496977263534 C 130.37150785825835 129.09596604300054 120.05236059955259 139.49221110782884 107.10284247098055 139.49221110782884 C 94.15332434240857 139.49221110782884 83.83417708370283 129.09596604300054 83.83417708370281 116.0496977263534 C 83.83417708370281 111.48350381552672 85.08866165240815 106.87654031621085 87.67856527812258 103.61497323704899 C 85.73613755883675 99.70109274205471 83.71277535124732 95.70567307008149 82.41782353839018 91.79179257508734 C 76.59054038053277 98.31492673341101 72.70568494196121 106.91730990470029 72.7056849419612 116.0496977263534 C 72.7056849419612 134.96678678549193 88.32604118455123 150.5 107.10284247098055 150.5 C 125.87964375741001 150.5 141.5 134.9667867854919 141.5 116.0496977263534 C 141.5 97.13260866721487 125.87964375741001 80.7840036829164 107.10284247098053 80.7840036829164 C 106.13162861133767 80.7840036829164 105.4032182166055 80.70246450593721 104.67480782187334 80.7840036829164 Z M 99.81873852366104 25.504971645397372 C 98.16027274428765 25.661786802571434 97.07175808976956 26.331960160001447 96.17668655000277 27.74729901232898 C 94.05821013175422 30.9487508440228 89.80677325923996 32.62380559050964 85.65520307053797 33.25119345841056 C 81.50363288182642 33.878581326309416 78.16876290245247 33.45504140085727 78.16876290244953 33.4550414008542 C 75.12776789525236 33.02001324780035 72.16362322821529 36.116907395045956 72.70568494196213 39.162783789396514 C 72.70568494196124 39.16278378939046 74.20271398521479 46.96527350533588 77.35941801941249 58.32449037946048 L 38.51086363370166 58.324490379460485 L 36.68983764687248 53.635987703170514 C 43.353672625351564 51.93268387189835 45.79496758102247 50.90682317848943 45.79496758101823 48.74363708442006 C 45.794967581022476 46.78669683693114 42.598055293031265 46.90900560239955 38.71319985445669 46.9090056023927 L 17.265560454017063 46.909005602392696 C 14.028180921869245 46.90900560239955 13.421172259592462 48.13209325708517 13.421172259586887 51.39366033623904 C 13.421172259592463 62.89624069596856 18.669877422224342 59.74736075939175 27.18003527119984 56.48985889743314 L 29.608069920310967 62.60529717086295 L 5.934732091515268 113.15958689786706 C 4.457655281422728 116.04566402394916 6.961044064855847 120.24915142341379 10.183792727455533 120.29426488353225 L 55.50710617744595 120.29426488353224 C 55.66489767890662 120.30089374407291 55.75398711751427 120.30089374407291 55.91177861897287 120.29426488353224 C 56.153350110328546 120.23057197072087 56.2875977457051 120.18548842257616 56.51878728123802 120.0904169410885 C 57.18257837584036 119.96883868078416 57.55801144256711 119.82699941093192 58.137477047312146 119.47887311375737 C 58.218728703435936 119.40169204012727 58.26320456374815 119.35688388576304 58.33981326808403 119.27502517129676 C 58.889884910456644 118.8895869998368 59.17125080293935 118.60611892851287 59.5538305926312 118.05193751661764 C 59.95786118740813 117.55626791907886 60.14442716445889 117.22733813963909 60.36317547566823 116.62500191947778 L 84.44118574597405 80.7477640487083 C 88.9848997174148 93.05285429287946 95.0270089062661 106.28979382097437 102.6514456142823 118.05193751661764 C 102.02775423753063 117.1210468473969 101.81582598755973 116.42310327472548 101.81582598756778 115.29999034699281 C 101.81582598755972 112.58521872006432 104.00353098957238 110.38116864109233 106.6981700652574 110.38116864109529 C 108.48666178471619 110.38116864109233 109.74428184163233 111.0545786576827 110.74489443482149 112.54804305586535 C 101.63367176220977 98.49224798840747 95.21716610522515 82.68606117877593 90.91594481027039 69.53612721408429 C 90.87936474989756 69.13215592295883 90.83406371419318 68.90395844836797 90.71360858949848 68.51688750184891 C 90.69312892658628 68.45333260574199 90.73399113104102 68.37646073125333 90.71360858949848 68.31303955940515 L 88.69024638191433 61.7899054010711 C 88.55055643163018 61.5399663381306 88.46084906673775 61.40439994012871 88.28557394040418 61.17836157374008 C 88.26513312603342 61.10772907706615 88.30587231006595 61.04488063639094 88.28557394040419 60.97451363127946 C 88.21405166912821 60.811872126589336 88.16947265046765 60.72204795970302 88.08323771963227 60.56681774639195 C 85.7135277001843 52.29117445121035 84.43168079967326 45.88906073935915 83.83417708370885 43.0358946958946 C 85.34514628322178 42.99675589094509 85.42108225752764 43.31589370650676 87.27389283661208 43.0358946958946 C 92.83446124432702 42.19557737817226 99.91385273431324 39.834442864196106 104.27013538035641 33.25119345841055 C 106.24835909146373 30.476594797084665 103.61353008598661 25.43301687534087 100.22341096517118 25.50497164539735 C 100.06561946372162 25.498342784867503 99.97653002511396 25.498342784867518 99.81873852366104 25.504971645397372 Z M 34.466411858948014 75.04217559906515 L 48.42761109131599 110.51171758494722 L 17.874841756713796 110.51171758494723 L 34.466411858948014 75.04217559906515 Z" style="stroke:none;fill:#B9B9B9;stroke-miterlimit:10;"/><path d="M 104.67480782187334 80.7840036829164 C 103.94639742714116 80.86554285989529 103.29892152071264 81.0693908023429 102.65144561428397 81.39554751025904 C 103.94639742714116 85.30942800525331 105.80789065812337 88.69330384988355 107.10284247098052 92.60718434487782 C 120.05236059955257 92.60718434487782 130.37150785825835 103.00342940970602 130.37150785825835 116.0496977263534 C 130.37150785825835 129.09596604300054 120.05236059955259 139.49221110782884 107.10284247098055 139.49221110782884 C 94.15332434240857 139.49221110782884 83.83417708370283 129.09596604300054 83.83417708370281 116.0496977263534 C 83.83417708370281 111.48350381552672 85.08866165240815 106.87654031621085 87.67856527812258 103.61497323704899 C 85.73613755883675 99.70109274205471 83.71277535124732 95.70567307008149 82.41782353839018 91.79179257508734 C 76.59054038053277 98.31492673341101 72.70568494196121 106.91730990470029 72.7056849419612 116.0496977263534 C 72.7056849419612 134.96678678549193 88.32604118455123 150.5 107.10284247098055 150.5 C 125.87964375741001 150.5 141.5 134.9667867854919 141.5 116.0496977263534 C 141.5 97.13260866721487 125.87964375741001 80.7840036829164 107.10284247098053 80.7840036829164 C 106.13162861133767 80.7840036829164 105.4032182166055 80.70246450593721 104.67480782187334 80.7840036829164 Z M 99.81873852366104 25.504971645397372 C 98.16027274428765 25.661786802571434 97.07175808976956 26.331960160001447 96.17668655000277 27.74729901232898 C 94.05821013175422 30.9487508440228 89.80677325923996 32.62380559050964 85.65520307053797 33.25119345841056 C 81.50363288182642 33.878581326309416 78.16876290245247 33.45504140085727 78.16876290244953 33.4550414008542 C 75.12776789525236 33.02001324780035 72.16362322821529 36.116907395045956 72.70568494196213 39.162783789396514 C 72.70568494196124 39.16278378939046 74.20271398521479 46.96527350533588 77.35941801941249 58.32449037946048 L 38.51086363370166 58.324490379460485 L 36.68983764687248 53.635987703170514 C 43.353672625351564 51.93268387189835 45.79496758102247 50.90682317848943 45.79496758101823 48.74363708442006 C 45.794967581022476 46.78669683693114 42.598055293031265 46.90900560239955 38.71319985445669 46.9090056023927 L 17.265560454017063 46.909005602392696 C 14.028180921869245 46.90900560239955 13.421172259592462 48.13209325708517 13.421172259586887 51.39366033623904 C 13.421172259592463 62.89624069596856 18.669877422224342 59.74736075939175 27.18003527119984 56.48985889743314 L 29.608069920310967 62.60529717086295 L 5.934732091515268 113.15958689786706 C 4.457655281422728 116.04566402394916 6.961044064855847 120.24915142341379 10.183792727455533 120.29426488353225 L 55.50710617744595 120.29426488353224 C 55.66489767890662 120.30089374407291 55.75398711751427 120.30089374407291 55.91177861897287 120.29426488353224 C 56.153350110328546 120.23057197072087 56.2875977457051 120.18548842257616 56.51878728123802 120.0904169410885 C 57.18257837584036 119.96883868078416 57.55801144256711 119.82699941093192 58.137477047312146 119.47887311375737 C 58.218728703435936 119.40169204012727 58.26320456374815 119.35688388576304 58.33981326808403 119.27502517129676 C 58.889884910456644 118.8895869998368 59.17125080293935 118.60611892851287 59.5538305926312 118.05193751661764 C 59.95786118740813 117.55626791907886 60.14442716445889 117.22733813963909 60.36317547566823 116.62500191947778 L 84.44118574597405 80.7477640487083 C 88.9848997174148 93.05285429287946 95.0270089062661 106.28979382097437 102.6514456142823 118.05193751661764 C 102.02775423753063 117.1210468473969 101.81582598755973 116.42310327472548 101.81582598756778 115.29999034699281 C 101.81582598755972 112.58521872006432 104.00353098957238 110.38116864109233 106.6981700652574 110.38116864109529 C 108.48666178471619 110.38116864109233 109.74428184163233 111.0545786576827 110.74489443482149 112.54804305586535 C 101.63367176220977 98.49224798840747 95.21716610522515 82.68606117877593 90.91594481027039 69.53612721408429 C 90.87936474989756 69.13215592295883 90.83406371419318 68.90395844836797 90.71360858949848 68.51688750184891 C 90.69312892658628 68.45333260574199 90.73399113104102 68.37646073125333 90.71360858949848 68.31303955940515 L 88.69024638191433 61.7899054010711 C 88.55055643163018 61.5399663381306 88.46084906673775 61.40439994012871 88.28557394040418 61.17836157374008 C 88.26513312603342 61.10772907706615 88.30587231006595 61.04488063639094 88.28557394040419 60.97451363127946 C 88.21405166912821 60.811872126589336 88.16947265046765 60.72204795970302 88.08323771963227 60.56681774639195 C 85.7135277001843 52.29117445121035 84.43168079967326 45.88906073935915 83.83417708370885 43.0358946958946 C 85.34514628322178 42.99675589094509 85.42108225752764 43.31589370650676 87.27389283661208 43.0358946958946 C 92.83446124432702 42.19557737817226 99.91385273431324 39.834442864196106 104.27013538035641 33.25119345841055 C 106.24835909146373 30.476594797084665 103.61353008598661 25.43301687534087 100.22341096517118 25.50497164539735 C 100.06561946372162 25.498342784867503 99.97653002511396 25.498342784867518 99.81873852366104 25.504971645397372 Z M 34.466411858948014 75.04217559906515 L 48.42761109131599 110.51171758494722 L 17.874841756713796 110.51171758494723 L 34.466411858948014 75.04217559906515 Z" style="fill:none;stroke:#8B8B8B;stroke-width:3;"/><g style="isolation:isolate"/><g style="isolation:isolate"><rect x="235.83466488228663" y="230.80142098469557" width="124.71052631578948" height="13.856725146198812" transform="matrix(1,0,0,1,0,0)" fill="rgb(255,193,7)" stroke-width="2.083333333333334" stroke="rgba(0,0,0,0)" stroke-linejoin="miter" stroke-linecap="butt"/><path d=" M 260.08393388813454 293.15668414259005 L 246.2272087419357 293.15668414259005 L 246.2272087419357 244.65814613089415 L 260.08393388813454 244.65814613089415 L 260.08393388813454 293.15668414259005 Z  M 336.2959221922281 293.15668414259005 L 350.15264733842696 293.15668414259005 L 350.15264733842696 244.65814613089415 L 336.2959221922281 244.65814613089415 L 336.2959221922281 293.15668414259005 Z " fill-rule="evenodd" fill="rgb(255,152,0)" stroke-width="2.083333333333334" stroke="rgba(0,0,0,0)" stroke-linejoin="miter" stroke-linecap="butt"/><rect x="260.0839338881346" y="244.65814613089432" width="76.21198830409355" height="13.85672514619884" transform="matrix(1,0,0,1,0,0)" fill="rgb(245,124,0)" stroke-width="2.083333333333334" stroke="rgba(0,0,0,0)" stroke-linejoin="miter" stroke-linecap="butt"/><rect x="256.6197526015849" y="161.51779525370137" width="83.14035087719299" height="55.426900584795305" transform="matrix(1,0,0,1,0,0)" fill="rgb(84,110,122)" stroke-width="2.083333333333334" stroke="rgba(0,0,0,0)" stroke-linejoin="miter" stroke-linecap="butt"/><rect x="263.5481151746843" y="168.44615782680077" width="69.28362573099412" height="41.57017543859649" transform="matrix(1,0,0,1,0,0)" fill="rgb(187,222,251)" stroke-width="2.083333333333334" stroke="rgba(0,0,0,0)" stroke-linejoin="miter" stroke-linecap="butt"/><path d=" M 318.97501575947956 223.8730584115959 C 316.89650698754974 223.8730584115959 313.08590757234504 223.8730584115959 308.58247189983047 223.8730584115959 L 308.58247189983047 216.9446958384965 L 287.79738418053216 216.9446958384965 L 287.79738418053216 223.8730584115959 C 283.2939485080176 223.8730584115959 279.4833490928129 223.8730584115959 277.40484032088307 223.8730584115959 C 270.47647774778363 223.8730584115959 270.47647774778363 230.8014209846953 270.47647774778363 230.8014209846953 L 325.903378332579 230.8014209846953 C 325.903378332579 230.8014209846953 325.903378332579 223.8730584115959 318.97501575947956 223.8730584115959 Z " fill="rgb(69,90,100)" stroke-width="2.083333333333334" stroke="rgba(0,0,0,0)" stroke-linejoin="miter" stroke-linecap="butt"/><path d=" M 291.26156546708194 176.41377478586492 L 308.2360537711755 192.34900870399358 L 300.26843681211113 193.04184496130352 L 304.07903622731584 201.7022981776778 L 300.96127306942105 203.08797069229766 L 297.1506736542164 194.4275174759234 L 291.26156546708194 199.97020753440293 L 291.26156546708194 176.41377478586492 Z " fill="rgb(63,81,181)" stroke-width="2.083333333333334" stroke="rgba(0,0,0,0)" stroke-linejoin="miter" stroke-linecap="butt"/><rect x="325.20492479751425" y="33.025799607739785" width="122.25125592226789" height="90.81521868511331" transform="matrix(1,0,0,1,0,0)" fill="rgb(194,232,255)" stroke-width="2.5" stroke="rgba(0,0,0,0)" stroke-linejoin="miter" stroke-linecap="butt"/><path d=" M 445.709734206607 34.772246120915035 L 445.709734206607 122.09457177967784 L 326.9513713106895 122.09457177967784 L 326.9513713106895 34.772246120915035 L 445.709734206607 34.772246120915035 Z  M 449.20262723295747 31.27935309456452 L 323.45847828433904 31.27935309456452 L 323.45847828433904 125.58746480602835 L 449.20262723295747 125.58746480602835 L 449.20262723295747 31.27935309456452 L 449.20262723295747 31.27935309456452 Z " fill-rule="evenodd" fill="rgb(116,150,196)" stroke-width="2.5" stroke="rgba(0,0,0,0)" stroke-linejoin="miter" stroke-linecap="butt"/><rect x="325.20492479751425" y="1.589762370585163" width="122.25125592226789" height="31.436037237154608" transform="matrix(1,0,0,1,0,0)" fill="rgb(139,183,240)" stroke-width="2.5" stroke="rgba(0,0,0,0)" stroke-linejoin="miter" stroke-linecap="butt"/><path d=" M 445.709734206607 3.336208883760426 L 445.709734206607 31.27935309456452 L 326.9513713106895 31.27935309456452 L 326.9513713106895 3.336208883760426 L 445.709734206607 3.336208883760426 Z  M 449.20262723295747 -0.15668414259008667 L 323.45847828433904 -0.15668414259008667 L 323.45847828433904 34.772246120915035 L 449.20262723295747 34.772246120915035 L 449.20262723295747 -0.15668414259008667 L 449.20262723295747 -0.15668414259008667 Z " fill-rule="evenodd" fill="rgb(78,122,181)" stroke-width="2.5" stroke="rgba(0,0,0,0)" stroke-linejoin="miter" stroke-linecap="butt"/><rect x="375.85187367959685" y="10.321994936461444" width="62.872074474309215" height="13.971572105402046" transform="matrix(1,0,0,1,0,0)" fill="rgb(255,255,255)" stroke-width="2.5" stroke="rgba(0,0,0,0)" stroke-linejoin="miter" stroke-linecap="butt"/><circle vector-effect="non-scaling-stroke" cx="0" cy="0" r="1" fill="rgb(194,232,255)" transform="matrix(6.985786052701024,0,0,6.985786052701024,340.92294341609164,17.307780989162467)" stroke-width="2.5" stroke="rgba(0,0,0,0)"/><circle vector-effect="non-scaling-stroke" cx="0" cy="0" r="1" fill="rgb(194,232,255)" transform="matrix(6.985786052701024,0,0,6.985786052701024,361.8803015741947,17.307780989162467)" stroke-width="2.5" stroke="rgba(0,0,0,0)"/><rect x="384.67108923044225" y="108.36373392084721" width="121.99497364812555" height="90.62483756717899" transform="matrix(1,0,0,1,0,0)" fill="rgb(194,232,255)" stroke-width="2.5" stroke="rgba(0,0,0,0)" stroke-linejoin="miter" stroke-linecap="butt"/><path d=" M 504.92327754073756 110.10651925867757 L 504.92327754073756 197.2457861501958 L 386.4138745682728 197.2457861501958 L 386.4138745682728 110.10651925867757 L 504.92327754073756 110.10651925867757 Z  M 508.4088482163983 106.62094858301684 L 382.92830389261206 106.62094858301684 L 382.92830389261206 200.73135682585655 L 508.4088482163983 200.73135682585655 L 508.4088482163983 106.62094858301684 L 508.4088482163983 106.62094858301684 Z " fill-rule="evenodd" fill="rgb(116,150,196)" stroke-width="2.5" stroke="rgba(0,0,0,0)" stroke-linejoin="miter" stroke-linecap="butt"/><rect x="384.67108923044225" y="76.99359783990062" width="121.99497364812555" height="31.370136080946565" transform="matrix(1,0,0,1,0,0)" fill="rgb(139,183,240)" stroke-width="2.5" stroke="rgba(0,0,0,0)" stroke-linejoin="miter" stroke-linecap="butt"/><path d=" M 504.92327754073756 78.736383177731 L 504.92327754073756 106.62094858301684 L 386.4138745682728 106.62094858301684 L 386.4138745682728 78.736383177731 L 504.92327754073756 78.736383177731 Z  M 508.4088482163983 75.25081250207027 L 382.92830389261206 75.25081250207027 L 382.92830389261206 110.10651925867757 L 508.4088482163983 110.10651925867757 L 508.4088482163983 75.25081250207027 L 508.4088482163983 75.25081250207027 Z " fill-rule="evenodd" fill="rgb(78,122,181)" stroke-width="2.5" stroke="rgba(0,0,0,0)" stroke-linejoin="miter" stroke-linecap="butt"/><rect x="435.21186402752295" y="85.70752452905244" width="62.74027216189313" height="13.942282702642927" transform="matrix(1,0,0,1,0,0)" fill="rgb(255,255,255)" stroke-width="2.5" stroke="rgba(0,0,0,0)" stroke-linejoin="miter" stroke-linecap="butt"/><circle vector-effect="non-scaling-stroke" cx="0" cy="0" r="1" fill="rgb(194,232,255)" transform="matrix(6.971141351321459,0,0,6.971141351321459,400.35615727091556,92.6786658803739)" stroke-width="2.5" stroke="rgba(0,0,0,0)"/><circle vector-effect="non-scaling-stroke" cx="0" cy="0" r="1" fill="rgb(194,232,255)" transform="matrix(6.971141351321459,0,0,6.971141351321459,421.26958132488005,92.6786658803739)" stroke-width="2.5" stroke="rgba(0,0,0,0)"/><rect x="441.92212954132975" y="187.70451572566895" width="122.25125592226794" height="90.81521868511334" transform="matrix(1,0,0,1,0,0)" fill="rgb(194,232,255)" stroke-width="2.5" stroke="rgba(0,0,0,0)" stroke-linejoin="miter" stroke-linecap="butt"/><path d=" M 562.4269389504225 189.45096223884423 L 562.4269389504225 276.773287897607 L 443.668576054505 276.773287897607 L 443.668576054505 189.45096223884423 L 562.4269389504225 189.45096223884423 Z  M 565.9198319767729 185.9580692124937 L 440.17568302815454 185.9580692124937 L 440.17568302815454 280.26618092395756 L 565.9198319767729 280.26618092395756 L 565.9198319767729 185.9580692124937 L 565.9198319767729 185.9580692124937 Z " fill-rule="evenodd" fill="rgb(116,150,196)" stroke-width="2.5" stroke="rgba(0,0,0,0)" stroke-linejoin="miter" stroke-linecap="butt"/><rect x="441.92212954132975" y="156.26847848851435" width="122.25125592226794" height="31.436037237154608" transform="matrix(1,0,0,1,0,0)" fill="rgb(139,183,240)" stroke-width="2.5" stroke="rgba(0,0,0,0)" stroke-linejoin="miter" stroke-linecap="butt"/><path d=" M 562.4269389504225 158.01492500168962 L 562.4269389504225 185.9580692124937 L 443.668576054505 185.9580692124937 L 443.668576054505 158.01492500168962 L 562.4269389504225 158.01492500168962 Z  M 565.9198319767729 154.5220319753391 L 440.17568302815454 154.5220319753391 L 440.17568302815454 189.45096223884423 L 565.9198319767729 189.45096223884423 L 565.9198319767729 154.5220319753391 L 565.9198319767729 154.5220319753391 Z " fill-rule="evenodd" fill="rgb(78,122,181)" stroke-width="2.5" stroke="rgba(0,0,0,0)" stroke-linejoin="miter" stroke-linecap="butt"/><rect x="492.56907842341235" y="165.00071105439062" width="62.87207447430927" height="13.97157210540206" transform="matrix(1,0,0,1,0,0)" fill="rgb(255,255,255)" stroke-width="2.5" stroke="rgba(0,0,0,0)" stroke-linejoin="miter" stroke-linecap="butt"/><circle vector-effect="non-scaling-stroke" cx="0" cy="0" r="1" fill="rgb(194,232,255)" transform="matrix(6.985786052701024,0,0,6.985786052701024,457.6401481599072,171.98649710709165)" stroke-width="2.5" stroke="rgba(0,0,0,0)"/><circle vector-effect="non-scaling-stroke" cx="0" cy="0" r="1" fill="rgb(194,232,255)" transform="matrix(6.985786052701024,0,0,6.985786052701024,478.59750631801023,171.98649710709165)" stroke-width="2.5" stroke="rgba(0,0,0,0)"/><rect x="532.9099022256768" y="220.4905083713011" width="9.58224516844848" height="46.74334105059771" transform="matrix(1,0,0,1,0,0)" fill="rgb(186,224,189)" stroke-width="2.5" stroke="rgba(0,0,0,0)" stroke-linejoin="miter" stroke-linecap="butt"/><path d=" M 541.2943667480693 221.42537519231308 L 541.2943667480693 266.2989826008869 L 534.1076828717328 266.2989826008869 L 534.1076828717328 221.42537519231308 L 541.2943667480693 221.42537519231308 Z  M 543.6899280401814 219.55564155028918 L 531.7121215796207 219.55564155028918 L 531.7121215796207 268.1687162429108 L 543.6899280401814 268.1687162429108 L 543.6899280401814 219.55564155028918 L 543.6899280401814 219.55564155028918 Z " fill-rule="evenodd" fill="rgb(94,156,118)" stroke-width="2.5" stroke="rgba(0,0,0,0)" stroke-linejoin="miter" stroke-linecap="butt"/><rect x="504.16316672033105" y="229.83917658142065" width="9.582245168448537" height="37.394672840478165" transform="matrix(1,0,0,1,0,0)" fill="rgb(186,224,189)" stroke-width="2.5" stroke="rgba(0,0,0,0)" stroke-linejoin="miter" stroke-linecap="butt"/><path d=" M 512.5476312427236 230.77404340243262 L 512.5476312427236 266.2989826008869 L 505.3609473663871 266.2989826008869 L 505.3609473663871 230.77404340243262 L 512.5476312427236 230.77404340243262 Z  M 514.9431925348357 228.90430976040872 L 502.965386074275 228.90430976040872 L 502.965386074275 268.1687162429108 L 514.9431925348357 268.1687162429108 L 514.9431925348357 228.90430976040872 L 514.9431925348357 228.90430976040872 Z " fill-rule="evenodd" fill="rgb(94,156,118)" stroke-width="2.5" stroke="rgba(0,0,0,0)" stroke-linejoin="miter" stroke-linecap="butt"/><rect x="489.7897989676582" y="242.927312075588" width="9.582245168448594" height="24.30653734631082" transform="matrix(1,0,0,1,0,0)" fill="rgb(186,224,189)" stroke-width="2.5" stroke="rgba(0,0,0,0)" stroke-linejoin="miter" stroke-linecap="butt"/><path d=" M 498.1742634900507 243.8621788966 L 498.1742634900507 266.2989826008869 L 490.9875796137143 266.2989826008869 L 490.9875796137143 243.8621788966 L 498.1742634900507 243.8621788966 Z  M 500.5698247821628 241.99244525457607 L 488.59201832160215 241.99244525457607 L 488.59201832160215 268.1687162429108 L 500.5698247821628 268.1687162429108 L 500.5698247821628 241.99244525457607 L 500.5698247821628 241.99244525457607 Z " fill-rule="evenodd" fill="rgb(94,156,118)" stroke-width="2.5" stroke="rgba(0,0,0,0)" stroke-linejoin="miter" stroke-linecap="butt"/><rect x="475.4164312149854" y="237.31811114951637" width="9.582245168448594" height="29.915738272382555" transform="matrix(1,0,0,1,0,0)" fill="rgb(186,224,189)" stroke-width="2.5" stroke="rgba(0,0,0,0)" stroke-linejoin="miter" stroke-linecap="butt"/><path d=" M 483.80089573737786 238.25297797052826 L 483.80089573737786 266.2989826008869 L 476.61421186104144 266.2989826008869 L 476.61421186104144 238.25297797052826 L 483.80089573737786 238.25297797052826 Z  M 486.19645702949 236.38324432850436 L 474.21865056892926 236.38324432850436 L 474.21865056892926 268.1687162429108 L 486.19645702949 268.1687162429108 L 486.19645702949 236.38324432850436 L 486.19645702949 236.38324432850436 Z " fill-rule="evenodd" fill="rgb(94,156,118)" stroke-width="2.5" stroke="rgba(0,0,0,0)" stroke-linejoin="miter" stroke-linecap="butt"/><rect x="461.04306346231243" y="246.6667793596358" width="9.582245168448594" height="20.567070062263014" transform="matrix(1,0,0,1,0,0)" fill="rgb(186,224,189)" stroke-width="2.5" stroke="rgba(0,0,0,0)" stroke-linejoin="miter" stroke-linecap="butt"/><path d=" M 469.42752798470497 247.6016461806478 L 469.42752798470497 266.2989826008869 L 462.24084410836855 266.2989826008869 L 462.24084410836855 247.6016461806478 L 469.42752798470497 247.6016461806478 Z  M 471.82308927681714 245.7319125386239 L 459.84528281625643 245.7319125386239 L 459.84528281625643 268.1687162429108 L 471.82308927681714 268.1687162429108 L 471.82308927681714 245.7319125386239 L 471.82308927681714 245.7319125386239 Z " fill-rule="evenodd" fill="rgb(94,156,118)" stroke-width="2.5" stroke="rgba(0,0,0,0)" stroke-linejoin="miter" stroke-linecap="butt"/><rect x="518.5365344730039" y="235.44837750749235" width="9.58224516844848" height="31.785471914406457" transform="matrix(1,0,0,1,0,0)" fill="rgb(186,224,189)" stroke-width="2.5" stroke="rgba(0,0,0,0)" stroke-linejoin="miter" stroke-linecap="butt"/><path d=" M 526.9209989953964 236.38324432850436 L 526.9209989953964 266.2989826008869 L 519.7343151190599 266.2989826008869 L 519.7343151190599 236.38324432850436 L 526.9209989953964 236.38324432850436 Z  M 529.3165602875085 234.51351068648046 L 517.3387538269478 234.51351068648046 L 517.3387538269478 268.1687162429108 L 529.3165602875085 268.1687162429108 L 529.3165602875085 234.51351068648046 L 529.3165602875085 234.51351068648046 Z " fill-rule="evenodd" fill="rgb(94,156,118)" stroke-width="2.5" stroke="rgba(0,0,0,0)" stroke-linejoin="miter" stroke-linecap="butt"/><path d=" M 538.8988054559571 202.728038772074 L 522.1298764111721 212.07670698219354 L 512.5476312427236 208.3372396981457 L 493.3831409058264 219.55564155028918 L 483.80089573737786 215.81617426624135 L 462.24084410836855 228.90430976040872" fill="rgba(0,0,0,0)" stroke-width="2.5" stroke="rgb(94,156,118)" stroke-linejoin="miter" stroke-linecap="butt"/><path d=" M 532.2080027670879 199.92343830903815 L 542.4921473941254 199.92343830903815 L 542.4921473941254 207.95020483424676 L 532.2080027670879 199.92343830903815 Z " fill="rgb(186,224,189)" stroke-width="2.5" stroke="rgba(0,0,0,0)" stroke-linejoin="miter" stroke-linecap="butt"/><path d=" M 541.2943667480693 200.8583051300501 L 541.2943667480693 205.6934363283239 L 535.0994452466673 200.8583051300501 L 541.2943667480693 200.8583051300501 Z  M 543.6899280401814 198.98857148802617 L 529.3165602875085 198.98857148802617 L 543.6899280401814 210.20697334016964 L 543.6899280401814 198.98857148802617 L 543.6899280401814 198.98857148802617 Z " fill-rule="evenodd" fill="rgb(94,156,118)" stroke-width="2.5" stroke="rgba(0,0,0,0)" stroke-linejoin="miter" stroke-linecap="butt"/></g><g style="isolation:isolate"><rect x="140.95068843554594" y="182.42403060210722" width="21.02186098654704" height="14.567780859098434" transform="matrix(1,0,0,1,0,0)" fill="rgb(209,209,209)" stroke-width="3" stroke="rgb(162,162,162)" stroke-linejoin="miter" stroke-linecap="square"/><rect x="145.84793035116522" y="188.89859987281767" width="3.6462017621423115" height="3.237284635355195" transform="matrix(1,0,0,1,0,0)" fill="rgb(70,70,70)" stroke-width="1" stroke="rgba(0,0,0,0)" stroke-linejoin="miter" stroke-linecap="square"/><rect rx="9.03" ry="9.03" x="134.76036995515696" y="196.99181146120566" width="33.47926008968608" height="95.09011387774365" transform="matrix(1,0,0,1,0,0)" fill="rgb(139,183,240)" stroke-width="3" stroke="rgb(67,121,209)" stroke-linejoin="miter" stroke-linecap="square"/><rect x="154.184847312575" y="188.8985998728176" width="3.6462017621423115" height="3.237284635355195" transform="matrix(1,0,0,1,0,0)" fill="rgb(70,70,70)" stroke-width="1" stroke="rgba(0,0,0,0)" stroke-linejoin="miter" stroke-linecap="square"/><path d=" M 155.2293607496999 234.73550675783792 L 155.2293607496999 239.5971091073611 L 156.4447613370807 239.5971091073611 L 156.4447613370807 242.02791028212266 L 152.79855957493834 242.02791028212266 L 152.79855957493834 232.30470558307636 L 155.2293607496999 232.30470558307636 L 151.58315898755754 227.44310323355322 L 147.9369572254152 232.30470558307636 L 150.36775840017677 232.30470558307636 L 150.36775840017677 242.02791028212266 L 146.7215566380344 242.02791028212266 L 146.7215566380344 239.51203106624442 C 147.57841405213784 239.06840985185045 148.18003734289135 238.1993984318732 148.18003734289135 237.16630793259952 C 148.18003734289135 235.68959621893185 146.98286776432127 234.49242664036177 145.5061560506536 234.49242664036177 C 144.02944433698596 234.49242664036177 142.83227475841588 235.68959621893185 142.83227475841588 237.16630793259952 C 142.83227475841588 238.1993984318732 143.43389804916936 239.06840985185045 144.29075546327283 239.51203106624442 L 144.29075546327283 242.02791028212266 C 144.29075546327283 243.37092793117844 145.37853898897862 244.45871145688423 146.7215566380344 244.45871145688423 L 150.36775840017677 244.45871145688423 L 150.36775840017677 248.16568324839562 C 149.5048239831364 248.60930446278962 148.90927769531982 249.4965468915776 148.90927769531982 250.53571439378817 C 148.90927769531982 252.01242610745584 150.1064472738899 253.20959568602592 151.58315898755754 253.20959568602592 C 153.0598707012252 253.20959568602592 154.2570402797953 252.01242610745584 154.2570402797953 250.53571439378817 C 154.2570402797953 249.4965468915776 153.6614939919787 248.60930446278962 152.79855957493834 248.16568324839562 L 152.79855957493834 244.45871145688423 L 156.4447613370807 244.45871145688423 C 157.78777898613646 244.45871145688423 158.87556251184228 243.37092793117844 158.87556251184228 242.02791028212266 L 158.87556251184228 239.5971091073611 L 160.09096309922307 239.5971091073611 L 160.09096309922307 234.73550675783792 L 155.2293607496999 234.73550675783792 Z " fill="rgb(255,255,255)" stroke-width="2.083333333333334" stroke="rgba(0,0,0,0)" stroke-linejoin="miter" stroke-linecap="butt"/></g><g style="isolation:isolate"><path d=" M 42.32000922666006 134.44409503078828 C 42.28595565715975 191.4809160305344 45.96152817624369 238.65076335877865 111.55813748061732 237.8865148829536" fill="rgba(0,0,0,0)" stroke-width="2" stroke="rgb(93,93,93)" stroke-linejoin="miter" stroke-linecap="butt"/><line x1="177.17557251908397" y1="238.07670698219357" x2="212.18992804018137" y2="238.07670698219354" stroke-width="2" stroke="rgb(93,93,93)" stroke-linejoin="miter" stroke-linecap="butt"/></g><g style="isolation:isolate"><path d=" M 380.43046482398006 54.3189134096603 L 377.36121578907444 54.3189134096603 L 377.36121578907444 50.55481800604488 L 380.02507664887776 50.55481800604488 C 381.21449905236585 50.55481800604488 382.6738882788892 50.86404022742623 382.6292931426034 52.34470154146686 C 382.58722913379097 53.67563785838567 381.77774850851796 54.3189134096603 380.43046482398006 54.3189134096603 Z  M 388.7115007712064 62.77367542643759 L 385.35272598161674 57.90927791793354 C 386.0051657103404 57.56407942331225 386.23628008859293 57.46818612679289 386.84515016165636 56.969503343721186 C 388.130740931761 55.91660015979343 388.79576391098414 54.77559974499613 389.0768083376709 53.12073219518217 C 389.49361916049406 50.666443381807966 388.7266827102557 48.412280128629845 386.8143037044398 46.83483998538851 C 385.3997147103274 45.667985394349344 383.01833636298215 45.11137140106848 381.0674475435572 45.11137140106848 L 370.8753307283421 45.11137140106848 L 370.8753307283421 64.56889387400804 L 377.36121578907444 64.56889387400804 L 377.36121578907444 59.00958243571773 C 378.99022916264653 59.00958243571773 378.6496103438541 58.857466259066655 379.1679920065188 59.635072533601914 L 382.25645975479506 64.30638531124009 C 382.36391323408384 64.48579133700886 382.36534890695964 64.56889387400804 382.6310038855763 64.56889387400804 L 393.9233552446035 64.56889387400804 L 398.324498515977 56.22992671657258 L 402.6095042968349 64.56889387400804 L 408.75703142194226 64.56889387400804 L 398.32333550030285 43.89581975124129 L 388.7115007712064 62.77367542643759 Z  M 343.6632926676644 57.73014696226201 C 344.37236546877006 57.87200109397082 346.2096479251529 58.22670881011052 345.7147944073818 59.211763782956126 C 345.13793380720915 60.36001253610439 340.9635255085932 59.42105834639244 339.7397651879704 58.87401872281086 C 338.16047917960304 58.112074553547274 338.16629184507826 58.1126222808461 337.34573361615367 57.503957303907754 L 333.87116396722223 61.6734408826255 C 337.2986073523944 63.96850271604626 339.4607065743538 64.89925064785814 343.83845923588234 64.87797856034084 C 348.07230439155535 64.8573241740944 352.096854983792 63.283508200028535 352.37632378965884 58.98201751650288 C 352.7631785137379 53.02682471173304 347.3964040790146 52.91875594406892 343.22185824535 51.77659492649306 C 342.5629230016993 51.596436077300396 341.3804063053884 51.387484145037746 341.58826519594896 50.472330757421005 C 341.7487227526531 49.769550788012836 343.3348517329124 49.889247299522935 343.9509025832503 49.952103229630325 C 345.5728703017009 50.11803564642712 347.49749475263377 50.867051521121994 348.7539498084948 51.77091738317088 L 351.9389261416657 47.427705322006574 C 349.0380007030861 45.42428776559741 346.5196229699582 44.63806504091191 342.9906087449445 44.731834989312446 C 338.97905400835305 44.83839811012871 335.2151661137583 46.446276931232035 334.931385463473 51.00972603733122 C 334.62599250739225 55.92220772914351 339.8970787417213 56.97675409496776 343.6632926676644 57.73014696226201 Z  M 351.9968573518749 50.612751629149614 L 357.72989727261177 50.612751629149614 L 357.72989727261177 64.56889387400804 L 364.27364839537233 64.56889387400804 L 364.27364839537233 50.612751629149614 L 370.0066883161092 50.612751629149614 L 370.0066883161092 45.11137140106848 L 351.9968573518749 45.11137140106848 L 351.9968573518749 50.612751629149614 Z  M 412.80189376925165 65.72705962802931 L 423.2834687780743 45.11137140106848 L 417.02924340999766 45.11137140106848 L 412.8597598312799 53.392407348294796 L 408.63241019053396 45.11137140106848 L 402.37818482245734 45.11137140106848 L 412.80189376925165 65.72705962802931 Z  M 433.01233135615877 47.891027120213636 L 433.4176519701846 47.891027120213636 L 433.5335168034985 45.80628533085478 L 434.22843073328477 47.83309591000446 L 434.4007235428556 47.83309591000446 L 434.40215921573133 47.83309591000446 L 434.57445202530215 47.83309591000446 L 435.26936595508846 45.80628533085478 L 435.3852307884024 47.891027120213636 L 435.79055140242815 47.891027120213636 L 435.6168229199816 45.285099883515045 L 435.03777382350927 45.285099883515045 L 434.40147395338397 47.25178834326029 L 433.7651089350777 45.285099883515045 L 433.1860598386054 45.285099883515045 L 433.01233135615877 47.891027120213636 Z  M 430.9275895667999 45.632556848408186 L 431.738298355928 45.632556848408186 L 431.738298355928 47.891027120213636 L 432.14368894392595 47.891027120213636 L 432.14368894392595 45.632556848408186 L 432.95439773305407 45.632556848408186 L 432.95439773305407 45.285099883515045 L 430.9275895667999 45.285099883515045 L 430.9275895667999 45.632556848408186 Z  M 427.3371550845545 43.92420505495659 L 437.8187276804815 64.53989328191741 L 431.56450231240495 64.53989328191741 L 427.39501873368727 56.2588573346911 L 423.16767150583684 64.53989328191741 L 416.9134461377602 64.53989328191741 L 427.3371550845545 43.92420505495659 Z " fill-rule="evenodd" fill="rgb(255,153,0)" stroke-width="1" stroke="rgba(0,0,0,0)" stroke-linejoin="miter" stroke-linecap="square"/></g><g style="isolation:isolate"><clipPath id="_clipPath_DJ9lJszsbVl1IvuEfRwq6HlALyaJw9vv"><path d=" M 394.01150562970645 114.26009914733797 L 394.01150562970645 143.27220531521957 L 500.95213618941614 143.27220531521957 L 500.95213618941614 114.26009914733797 L 394.01150562970645 114.26009914733797 Z " fill="rgb(255,255,255)" stroke-width="1" stroke="rgba(0,0,0,0)" stroke-linejoin="miter" stroke-linecap="square"/></clipPath><g clip-path="url(#_clipPath_DJ9lJszsbVl1IvuEfRwq6HlALyaJw9vv)"><path d=" M 458.5402670029707 136.56282074383657 C 458.3457512005891 136.91228100406934 458.02650770813085 136.91101887863405 457.83459039929255 136.5608161916746 L 453.64953094118255 128.87480638272356 C 453.4713485267872 128.51792185522433 453.10681700400346 128.22481178354403 452.5982546962502 128.22481178354403 L 450.3279137661632 128.22481178354403 C 449.92774576050033 128.22481178354403 449.6003355740489 128.55125681525075 449.6003355740489 128.95183315561323 L 449.6003355740489 142.30356116496304 C 449.6003355740489 142.70287537989017 449.86315463528206 142.97619977930535 450.3279137661632 142.97619977930535 L 451.7388957601561 142.97619977930535 C 452.1394349791822 142.97619977930535 452.428238975848 142.72388605625432 452.428238975848 142.33800976507942 C 452.428238975848 142.15310838880796 452.4338071762978 132.626993937862 452.4490269241941 132.626993937862 C 452.46461788545366 132.626993937862 457.67348379961015 142.3354483928725 457.67348379961015 142.3354483928725 C 457.8616889748152 142.68765563199392 458.3245920388797 142.68910336411088 458.5172517744446 142.33838097844276 C 458.5172517744446 142.33838097844276 463.7688072253833 132.65490918278388 463.78402697327954 132.65490918278388 C 463.8003603612658 132.65490918278388 463.7947921608159 142.06011944129543 463.7947921608159 142.33800976507942 C 463.7947921608159 142.72388605625432 464.10327046573786 142.97619977930535 464.50380968476395 142.97619977930535 L 466.12898178939463 142.97619977930535 C 466.5295210084207 142.97619977930535 466.85581755478216 142.77682108186426 466.85581755478216 142.24899280055448 L 466.85581755478216 128.95183315561323 C 466.85581755478216 128.55125681525075 466.5295210084207 128.22481178354403 466.12898178939463 128.22481178354403 L 463.9529290535918 128.22481178354403 C 463.3975938620597 128.22481178354403 463.06313062170517 128.5081218224325 462.86490268569037 128.85594874386672 L 458.5402670029707 136.56282074383657 Z  M 493.45028533000993 128.22481178354403 C 493.0501173243471 128.22481178354403 492.7267904848923 128.4885588781854 492.7267904848923 128.87354425728827 C 492.7267904848923 129.0584085122234 492.7312450452522 137.42485241614654 492.7312450452522 137.42485241614654 C 492.7312450452522 137.82561436319068 492.5048048936248 137.91678436522298 492.22713729785875 137.62875991662017 L 483.66435864607377 128.74740595643092 C 483.38631983694444 128.45938150782817 482.9794699907418 128.22481178354403 482.4315590664762 128.22481178354403 L 480.8212354963785 128.22481178354403 C 480.31490046880515 128.22481178354403 480.09328609090096 128.4950922333799 480.09328609090096 128.7687878461584 C 480.09328609090096 129.0413698188469 480.09328609090096 142.1692561701125 480.09328609090096 142.44313738957268 C 480.09328609090096 142.71594209027919 480.35313544522745 142.97619977930535 480.7536746642536 142.97619977930535 L 482.36659672789455 142.97619977930535 C 482.7656510934674 142.97619977930535 483.0455459694134 142.7587058697341 483.0455459694134 142.3903879706444 C 483.0455459694134 142.20567220105457 483.0540838767698 133.38193055485314 483.0540838767698 133.38193055485314 C 483.0540838767698 132.98209664121734 483.2801528150339 132.89074103250337 483.55707798407326 133.17947078649647 L 492.48513058536867 142.46106699502124 C 492.7687375949479 142.74493385395473 493.11322359611216 142.97619977930535 493.7260968589594 142.97619977930535 L 494.9373660634842 142.97619977930535 C 495.33790528251035 142.97619977930535 495.6649442555984 142.64923504888995 495.6649442555984 142.24899280055448 L 495.6649442555984 128.95183315561323 C 495.6649442555984 128.55125681525075 495.33790528251035 128.22481178354403 494.9373660634842 128.22481178354403 L 493.45028533000993 128.22481178354403 Z  M 440.8630866415019 134.64238553001834 C 440.4142896852437 134.7456942090313 439.9090682977603 134.76655640005006 439.9090682977603 134.76655640005006 C 439.5096427188241 134.78415191347162 438.85593598601133 134.79810953593258 438.45576798034847 134.79810953593258 L 435.06065055939104 134.79810953593258 C 434.6601113403649 134.79810953593258 434.3330723672768 134.4707364708175 434.3330723672768 134.07071695050004 L 434.3330723672768 131.36201015966427 C 434.3330723672768 130.96180503266507 434.6601113403649 130.63461757423167 435.06065055939104 130.63461757423167 L 438.45576798034847 130.63461757423167 C 438.85593598601133 130.63461757423167 439.5096427188241 130.64894641005597 439.9090682977603 130.66579949675085 C 439.9090682977603 130.66579949675085 440.4142896852437 130.68573365436131 440.8630866415019 130.78941354673762 C 441.31188359776013 130.8929078324322 441.6678772131874 131.0375696801194 441.9284689942406 131.2242528805348 C 442.1901744153837 131.41204972104023 442.37689473713544 131.6322534881638 442.4893723862225 131.88549524462312 C 442.60073639521954 132.13869987974616 442.6575320398081 132.41458565136818 442.6575320398081 132.715454082342 C 442.6575320398081 133.0148747811988 442.60073639521954 133.2922082849378 442.4893723862225 133.5452644347155 C 442.37689473713544 133.79828346315688 442.1901744153837 134.0187099582984 441.9284689942406 134.2062840707858 C 441.6678772131874 134.39389530460952 441.31188359776013 134.54015336975905 440.8630866415019 134.64238553001834 Z  M 442.24214428624896 137.35744006936702 C 442.0123632143517 137.03010412558828 442.1382045445184 136.66846806703845 442.52129673546835 136.5542828364801 C 442.52129673546835 136.5542828364801 444.0454988052749 136.09787600627376 444.77493306420575 135.4440950307883 C 445.5043673231366 134.78830950314088 445.8711261261003 133.84104724261172 445.8711261261003 132.60687417356988 C 445.8711261261003 131.79974495769542 445.7300650480373 131.12112980820356 445.44905653200135 130.56920977961406 C 445.1684192293288 130.01855187645984 444.76528151675933 129.568121581403 444.2411282477465 129.2230045175211 C 443.71697497873356 128.87643972152225 443.08962439471674 128.62215856764558 442.35907649569594 128.4628337921071 C 441.62741495658514 128.30439992864055 440.6403586235077 128.25799825822511 440.6403586235077 128.25799825822511 C 440.24056183120825 128.23969743941328 439.5864838850321 128.22481178354403 439.1874295194593 128.22481178354403 L 431.86338986108507 128.22481178354403 C 431.4639642821489 128.22481178354403 431.13655409569753 128.55125681525075 431.13655409569753 128.95183315561323 L 431.13655409569753 142.32059985833953 C 431.13655409569753 142.7209905920204 431.4639642821489 142.97619977930535 431.86338986108507 142.97619977930535 L 433.59658505444287 142.97619977930535 C 433.99638184674234 142.97619977930535 434.32379203319374 142.7209905920204 434.32379203319374 142.32059985833953 C 434.32379203319374 142.32059985833953 434.32527688664703 137.00326539941997 434.3282465935536 137.00326539941997 C 434.3312163004602 137.00326539941997 434.3330723672768 137.0001843285044 434.3330723672768 136.9965464375438 C 434.3330723672768 136.99201763451126 437.61868184605385 136.988416864887 437.61868184605385 136.988416864887 C 438.01810742499 136.988416864887 438.53409400000976 137.25576472915267 438.76535992536037 137.5831006729314 L 442.17643952094073 142.38548795424853 C 442.49308451985576 142.81089846861735 442.79450977087447 142.97619977930535 443.1946777765373 142.97619977930535 L 445.4598217195378 142.97619977930535 C 445.8599897252006 142.97619977930535 445.9227247836023 142.59919548751392 445.7842621990826 142.4030834676701 C 445.6469132546528 142.20804796657987 442.24214428624896 137.35744006936702 442.24214428624896 137.35744006936702 Z  M 471.796667420619 128.97922870182654 C 471.796667420619 129.1095245923531 471.796667420619 142.09330591597652 471.796667420619 142.35556815716464 C 471.796667420619 142.72388605625432 472.12370639370704 142.97619977930535 472.5242456127332 142.97619977930535 L 474.28788030188355 142.97619977930535 C 474.68804830754635 142.97619977930535 475.0150872806344 142.7209905920204 475.0150872806344 142.32059985833953 L 475.0150872806344 128.95183315561323 C 475.0150872806344 128.55125681525075 474.7567227797612 128.22481178354403 474.3569259874617 128.22481178354403 L 472.5242456127332 128.22481178354403 C 472.12370639370704 128.22481178354403 471.796667420619 128.4709633647639 471.796667420619 128.97922870182654 Z  M 417.84926872622066 138.7940729067656 C 417.44943481258485 138.7940729067656 417.2610811520345 138.4962855467074 417.4295006549744 138.13431539613057 L 419.9726834071042 132.68590549862145 C 420.1418082154344 132.32304443597266 420.41550382821293 132.32538308016157 420.58061953221926 132.6882812641467 L 423.05676115093286 138.13646843363787 C 423.2220995829571 138.49988631633167 423.03014515278255 138.79771079772618 422.630459724492 138.79771079772618 L 417.84926872622066 138.7940729067656 Z  M 421.9268247943122 128.87480638272356 C 421.7490135932802 128.51684533647065 421.27556806969733 128.22481178354403 420.87536294269813 128.22481178354403 L 420.0611435515842 128.22481178354403 C 419.66149524463003 128.22481178354403 419.1934694361517 128.5204461060949 419.02074385819725 128.88078291787306 L 412.5665684740992 142.3641060645211 C 412.3871239342686 142.7209905920204 412.58215943535873 142.97619977930535 412.9825501690396 142.97619977930535 L 414.4740854628737 142.97619977930535 C 415.06282985710493 142.97619977930535 415.3325163655595 142.708666308358 415.4920267477796 142.38040233117098 C 415.65209395004473 142.05236108200197 416.00753074542706 141.33911172571206 416.07549991225164 141.19355896595286 C 416.16741234101056 140.99670451938235 416.4510564719261 140.87617154031116 416.8511131135799 140.87654275367456 L 423.79521589459245 140.88032912998042 C 424.1954210215916 140.8810715567071 424.4526347610385 140.9572074175247 424.57097758126605 141.19355896595286 C 424.648041475492 141.34761251173214 425.0029214508294 141.98892071820993 425.17765158094574 142.3390862838331 C 425.35349535115216 142.68910336411088 425.6490925523667 142.97619977930535 426.22261719870164 142.97619977930535 L 428.38664262153276 142.97619977930535 C 428.78666214185023 142.97619977930535 428.96194909201165 142.67243588409767 428.8178440643694 142.3903879706444 C 428.6737390367272 142.10726353843754 421.9268247943122 128.87480638272356 421.9268247943122 128.87480638272356 Z " fill-rule="evenodd" fill="none" stroke-width="1" stroke="rgba(0,0,0,0)" stroke-linejoin="miter" stroke-linecap="square"/><path d=" M 394.01150562970645 135.5872720250222 C 394.01150562970645 142.79059309764355 401.37923710094384 143.15601553249925 402.85662916563535 143.15601553249925 C 407.7460288593155 143.15601553249925 409.8120168328929 141.83483005109437 409.8977299984843 141.77773743581517 C 410.20349844585394 141.60482625117905 410.5758254492675 141.25573720430955 410.5758254492675 140.60191910748776 L 410.5758254492675 135.63025853249505 C 410.5758254492675 135.17203275680842 410.2027931404636 134.7990004480046 409.74438175809536 134.7990004480046 L 403.60232256987973 134.7990004480046 C 403.14320588212115 134.7990004480046 402.8417806311024 135.17203275680842 402.8417806311024 135.63025853249505 L 402.8417806311024 136.14520571009754 C 402.8417806311024 136.60413679117445 403.14320588212115 136.9780600120503 403.60232256987973 136.9780600120503 L 407.1553170342587 136.9780600120503 C 407.4984295459787 136.9780600120503 407.777025175153 137.25665564122463 407.777025175153 137.59939693958134 C 407.777025175153 137.59939693958134 407.7735728908741 139.77867923164504 407.7735728908741 139.91695620948312 C 407.0715712994929 140.20371853265053 403.8747560572229 141.13754286942734 401.3059967043601 140.5248923345981 C 397.57971984198167 139.63364617059452 397.2893493249227 136.55955406623931 397.2893493249227 135.63875931851518 C 397.2893493249227 134.86607870275716 397.5209938879039 130.9942490806196 402.0971637456116 130.60254473964054 C 405.8013534128723 130.2853429206805 408.2406706659442 131.78125853220186 408.2649851412419 131.79577297470783 C 408.7005297804294 132.0216191849539 409.1511456821679 131.86084667729844 409.39365937242724 131.3997254373779 C 409.3949214978625 131.39590193973564 409.85567152441973 130.4631541217125 409.85567152441973 130.4631541217125 C 410.0474403479127 130.07924526136324 409.9831090720487 129.68123029320773 409.51437795818003 129.36347165420275 C 409.48319603566085 129.3455420487542 406.8865214378761 127.93771536834956 402.8571859856803 127.93771536834956 C 394.25946464879235 127.93771536834956 394.01150562970645 134.80460576979075 394.01150562970645 135.5872720250222 Z " fill="none" stroke-width="1" stroke="rgba(0,0,0,0)" stroke-linejoin="miter" stroke-linecap="square"/><path d=" M 492.63621442424136 124.53806914435958 L 482.98763668473487 124.53769793099619 C 482.63387034948755 124.53769793099619 482.3302178182888 124.36189128212621 482.1535202573468 124.05556601471156 C 481.97682269640484 123.74924074729697 481.97682269640484 123.39903806033752 482.15389147071016 123.09271279292287 L 486.9785515538267 114.74115454486903 C 487.1552491147687 114.43519306655045 487.4585304326041 114.26009914733797 487.8122967678514 114.26009914733797 C 488.1656918897355 114.26009914733797 488.4693444209342 114.43519306655045 488.64604198187624 114.74115454486903 L 493.4699596382661 123.09308400628615 C 493.6473996259348 123.3994092737008 493.6473996259348 123.74998317402364 493.4703308516294 124.05627132010184 C 493.29363329068735 124.36226249548949 492.98998075948873 124.53806914435958 492.63621442424136 124.53806914435958 Z " fill-rule="evenodd" fill="none" stroke-width="1" stroke="rgba(0,0,0,0)" stroke-linejoin="miter" stroke-linecap="square"/><path d=" M 498.9486976675588 141.44965906530976 L 499.3306762184187 141.44965906530976 C 499.5775331050289 141.44965906530976 499.7360412111681 141.39872859186178 499.7360412111681 141.14244288582321 C 499.7360412111681 140.9184156210574 499.53558599497336 140.8531563117851 499.3306762184187 140.8531563117851 L 498.9486976675588 140.8531563117851 L 498.9486976675588 141.44965906530976 Z  M 498.62685568155723 140.60173350080603 L 499.3815324491941 140.60173350080603 C 499.83404153908555 140.60173350080603 500.0575119838063 140.78355380616196 500.0575119838063 141.15602929492084 C 500.0575119838063 141.4730455071992 499.8570567676116 141.7016015749975 499.54969210277966 141.7016015749975 L 500.1091106413083 142.57328479475396 L 499.7687079871406 142.57328479475396 L 499.21894099605834 141.7016015749975 L 498.9486976675588 141.7016015749975 L 498.9486976675588 142.57328479475396 L 498.62685568155723 142.57328479475396 L 498.62685568155723 140.60173350080603 Z  M 499.27462300055686 143.02026280553187 C 500.0482316497232 143.02026280553187 500.6306654167779 142.39599329243057 500.6306654167779 141.5896065032828 C 500.6306654167779 140.78355380616196 500.0482316497232 140.15876459435205 499.27462300055686 140.15876459435205 C 498.4921052306708 140.15876459435205 497.90892903688945 140.78355380616196 497.90892903688945 141.5896065032828 C 497.90892903688945 142.39599329243057 498.4921052306708 143.02026280553187 499.27462300055686 143.02026280553187 Z  M 499.27016844019704 139.90734178337297 C 500.197088208416 139.90734178337297 500.95213618941614 140.66246400704583 500.95213618941614 141.5896065032828 C 500.95213618941614 142.5170830915467 500.197088208416 143.27220531521957 499.27016844019704 143.27220531521957 C 498.34250624525134 143.27220531521957 497.5874582642512 142.5170830915467 497.5874582642512 141.5896065032828 C 497.5874582642512 140.66246400704583 498.34250624525134 139.90734178337297 499.27016844019704 139.90734178337297 Z " fill-rule="evenodd" fill="none" stroke-width="1" stroke="rgba(0,0,0,0)" stroke-linejoin="miter" stroke-linecap="square"/></g></g><g style="isolation:isolate"/><g style="isolation:isolate"/></svg>